<?xml version="1.0" encoding="UTF-8"?><svg id="uuid-fb18e399-9f9d-4957-aae8-0d99dce574ef" xmlns="http://www.w3.org/2000/svg" xmlns:xlink="http://www.w3.org/1999/xlink" viewBox="0 0 662.246316337 354.684790233"><defs><filter id="uuid-4cb7c9c8-9f66-4f18-8964-c8da955c0808" x="58.187539153" y="62.57763784" width="77.169283296" height="38.450902991" color-interpolation-filters="sRGB" filterUnits="userSpaceOnUse"><feColorMatrix result="cm" values="-1 0 0 0 1 0 -1 0 0 1 0 0 -1 0 1 0 0 0 1 0"/><feFlood flood-color="#fff" result="bg"/><feBlend in="cm" in2="bg"/></filter><mask id="uuid-fbee9894-8838-43d5-826d-8ae609b390ae" x="58.187539153" y="62.57763784" width="77.169283296" height="38.450902991" maskUnits="userSpaceOnUse"><g style="filter:url(#uuid-4cb7c9c8-9f66-4f18-8964-c8da955c0808);"><path d="M69.390136635,90.980825771c-.086518063-.282479128-.173193146-.564958256-.259674261-.847123344,1.005205593-.249504911,2.522176569-.595106112,3.658687895-.844139962-.46018882-1.733344688-.920608719-3.462606853-1.380677548-5.186844376-.432590316-1.626728052-.984358871-2.524725902-2.776586044-3.186879589.313291999.194704902.835189796.537322721,1.169328523.82137205.549293213.472159387.917311297,1.226797902,1.093016765,1.984419799.443738741,1.648867883.887634502,3.302603389,1.331530264,4.960107377-.80190154.169110629-2.355458194.526645356-3.295851442.759820178-.467134733-1.506293649-.934112445-3.008033715-1.400933138-4.504749139-.50136511-1.64258708.183399451-3.042107073.62179951-3.957691172.05169653-.101749013.103319211-.203341006.154978817-.304933.022453871-.042552442.045064762-.085261905.067518634-.127814347.03925502.008165044.078353019.016330089.117608039.024495133,2.841001279.641741076,3.307784968,2.389531611,3.476738573,3.043049193.552082595,2.134845038,1.10416519,4.276598959,1.656404805,6.424790704-1.287721662.271173682-2.471810072.513298649-4.23388939.942120493Z" style="fill:#fff;"/><path d="M81.964932582,88.631962361c-.048990264-.302891739-.097823509-.605469437-.146970793-.908361176.92374912-.130483688,2.558328135-.323618389,3.661708225-.434160527-.222968511-1.847498287-.445937022-3.694211474-.669062553-5.5396685-.223439571-1.715758438-.652261405-2.717546563-2.338814065-3.662336398.282479121.245579409.754952536.671260851,1.053290685,1.016705032.478440178.559462553.749770874,1.386330306.828751973,2.180380862.218571949,1.773541829.437457938,3.548496838.656067236,5.324079928-.751849484.080708322-2.327545969.259397176-3.302132329.398831009-.257393174-1.676346398-.514906102-3.351122595-.772419031-5.024485611-.158590279-1.082182407.022139831-1.723923483.244323242-2.351375731.20004358-.562759975.535438467-1.14593256.809281483-1.550259272.062688286-.09641033.125496319-.192663641.188304351-.289230991.028854417-.03846992.057589091-.07725388.086637806-.115723801.038155879.013189687.076311758.026222354.1143479.039569061,2.721591734,1.094115933,2.960419273,2.939729979,3.043325874,3.621354156.270388575,2.270039329.540777149,4.541962898.811008704,6.815142628-1.297770947.132367929-2.503057067.236786284-4.267648707.479539331Z" style="fill:#fff;"/><path d="M103.911628918,91.356103767l-4.613877979,3.326470442c-2.973175182.005809743-8.335567874-1.064910198-8.345774179-6.358057169l-.014131807-7.171107155,5.305080364-4.351811579c2.615169403-.335551916,5.347475785,1.824416335,8.356608564,2.19733903l-3.702847485,2.706398137c-2.074706294.180259054-3.826736327-1.778723491-5.265040244-1.507078749l.016801148,8.562148063c.003454442,1.7568977,2.795899513,3.528712308,8.263181618,2.595698979Z" style="fill:#fff;"/><path d="M112.695332095,82.237790573c-.337241088,2.105796323-.674558256,4.214261987-1.011837384,6.324925932-.989697553-.141789134-2.965324178-.341832719-4.179089383-.448606375.031718056-.310114662.063122071-.619915285.094683107-.930029947.925476341.084005744,2.531163661.234116943,3.609263519.394748487.266463073-1.716857579.533083166-3.431987937.799703259-5.145705114.22139831-1.707279354.067399647-2.797783825-1.305621951-4.248649385.209935845.32550263.551140475.886692404.746159412,1.309547486.318907779.692458563.365228702,1.5653332.235216077,2.347921289-.247425627,1.652793385-.494927287,3.307156972-.74239093,4.962462678-.812264865-.117451021-2.252767063-.239612645-3.257381523-.347799482.181710157-1.676032358.363501481-3.351436635.545173712-5.025741771.127186263-1.096471234.466977713-1.650124044.841627619-2.186033585.33056523-.47686999.806141082-.925947425,1.170898723-1.223500481.085575943-.071915198.171151885-.143673375.256727828-.215431553.037527799-.027635534.075055597-.055271069.112740416-.082749583.031404016.023395992.062808031.047106025.094055027.070502017,2.328017737,1.937156754,2.0864828,3.76330031,1.990072472,4.444139387Z" style="fill:#fff;"/><path d="M126.148655379,85.180660954c-.592593775,1.89067881-1.185501591,3.789679684-1.778409406,5.696060502-1.010581224-.2666201-2.991351243-.671731912-4.13323952-.907576075.071011316-.293627554.142260191-.587255107.213390286-.880725641.879821765.183556476,2.472595172.512199508,3.576132282.791695255.469490034-1.545234629.938823048-3.085915676,1.408194432-4.62157208.452022435-1.605687361.444642491-2.676093261-.713537606-4.303606413.161887701.354237305.426309512.953268919.558087725,1.386330306.224538718.722606418.151171969,1.5653332-.080432647,2.303484606-.446565103,1.483525737-.893091863,2.971605056-1.339695308,4.464080937-.821686069-.212291151-2.319657616-.509216127-3.220795845-.712400113.396318677-1.570357842.792794375-3.137261243,1.189270073-4.700553181.273057916-1.039001884.683665421-1.521053536,1.127404162-1.977510915.396161657-.405268832.924534221-.762332499,1.327447742-.995821361.095311187-.055271069.190465355-.110385118.285619522-.165499167.04035416-.020726651.08070832-.041610322.12090546-.062179953.028263614.027949575.056527228.056056169.084790842.084319784,2.048169901,2.247742477,1.561564678,3.958633293,1.374867805,4.601473509Z" style="fill:#fff;"/><path d="M125.031928583,97.127062849c-4.891803518-1.060199595-7.683463489-1.611026044-15.015830083-2.546551693-.28809387-.036742699-.635303237-.137863632-.635931317-.428193764-.000747136-.370724414.364286582-.413747917.650063124-.391922125,5.181505562.395062527,10.41482775,1.284267252,15.497881723,2.418737346.283578261.063122073,2.215710324,1.003515345,2.152274213,1.287093614-.055428088.24887683-1.975940665-.193291721-2.64845766-.339163378Z" style="fill:#fff;"/><path d="M68.660972328,97.127062849c4.891766582-1.060199595,7.683426553-1.611026044,15.015830462-2.546551693.288094528-.036742699.635265921-.137863632.635931333-.428193764.000747769-.370724414-.364286591-.413747917-.650257476-.391922125-5.181468378.395062527-10.41467073,1.284267252-15.497687779,2.418737346-.283615185.063122073-2.215747248,1.003515345-2.152311136,1.287093614.055428088.24887683,1.975940665-.193291721,2.648494596-.339163378Z" style="fill:#fff;"/></g></mask></defs><path d="M58.594330671,181.686790531c-9.941142721,0-18.153460735,8.104175016-18.153460735,18.153391056v73.802579772l-.972520512.216007279c-7.347801142.972450832-12.966707897,7.347870821-12.966707897,14.803605922v19.233845527c0,8.212457374,6.699500587,14.91202764,14.911748921,14.91202764h47.220584704l.216076958.756443554c6.591496947,18.045387416,23.88044081,30.039505121,43.006422057,30.039505121s36.41492511-12.102260704,43.006422057-30.039505121l.216076958-.756443554h212.152802942c3.78200873,0,6.915647225-3.133917214,6.915647225-6.915577545,0-3.782217769-3.133638495-6.915856264-6.915647225-6.915856264h-180.168117437v-1.080593831c-.108073319-6.37514127-1.080593831-12.858704258-2.809488218-18.90969525l-.432223597-1.404744109h238.410508373l-.432223597,1.404744109c-1.728894386,6.159133991-2.701414898,12.53455398-2.809488218,18.90969525v1.080593831h-14.047301728c-3.78193905,0-6.915577545,3.133638495-6.915577545,6.915856264,0,3.781660331,3.133638495,6.915577545,6.915577545,6.915577545h45.599763637l.216146638.756443554c6.375280629,18.585544972,23.772367491,31.120098952,43.438645654,31.120098952,19.666208483,0,37.063225665-12.53455398,43.438575974-31.120098952l.216146638-.756443554h89.470563207c8.212318014,0,14.911748921-6.699570266,14.911748921-14.91202764v-19.233845527c.324080598-8.320321654-6.375350309-15.01989192-14.587668324-15.01989192h-4.646386243v-49.381493647c0-11.778389145-7.455874461-22.584048739-18.477611013-26.798281065-27.338229582-10.373366317-56.081203273-15.667913756-85.472547199-15.667913756h-11.021736552l-38.684116412-53.812011971c-4.646386243-6.591427268-12.318407342-10.481509316-20.422652037-10.481509316h-84.283880049c-13.83115509,0-25.06903828,11.23795287-25.06903828,25.06910796v39.332416967l-300.975065595-.216007279ZM373.400551356,142.678245122h.00006968c0-6.159133991,5.07860984-11.237813511,11.237813511-11.237813511h15.127895559v50.354223199h-26.36577875v-39.116409688ZM54.272094706,234.958505586h2.269191302c1.188597471,0,2.161117983.972450832,2.161117983,2.160908944v10.805659594c0,1.18873683-.972520512,2.161187663-2.161117983,2.161187663h-2.269191302v-15.1277562ZM59.674924502,288.878660556c-1.728964066,6.159133991-2.701414898,12.534275261-2.809488218,18.90969525v1.080593831h-15.343972518v-1.080593831h-1.080593831v-20.314439359h19.666278163l-.432223597,1.404744109ZM132.072620806,339.773041311c-17.61316382,0-31.984685505-14.371591365-31.984685505-31.984685505s14.371521685-31.984685505,31.984685505-31.984685505,31.984615825,14.371591365,31.984615825,31.984685505-14.371452006,31.984685505-31.984615825,31.984685505ZM193.448510877,308.977092636h-15.560049476v-1.18873683c0-25.393258238-20.530725356-45.923983594-45.815840595-45.923983594-25.285184919,0-45.815910275,20.530725356-45.815910275,45.816119314v1.188458111h-15.560049476v-1.080593831c.432223597-15.992342753,7.023650864-31.012234673,18.585614652-42.249908824,11.562033468-11.23795287,26.689929027-17.397086861,42.790345099-17.397086861,16.100346392,0,31.33631527,6.159133991,42.790275419,17.504951141,11.561963788,11.23795287,18.153460735,26.25784479,18.585614652,42.249908824v1.08087255ZM514.522078231,340.745492144c-17.61316382,0-31.984685505-14.371312646-31.984685505-31.984685505,0-17.61309414,14.371452006-31.984685505,31.984685505-31.984685505,17.61316382,0,31.984615825,14.371591365,31.984615825,31.984685505,0,17.613372859-14.371452006,31.984685505-31.984615825,31.984685505ZM575.898107662,308.868949638h-15.560188836v-1.080593831c-.540296916-24.744957683-21.070952592-44.843389763-45.815840595-44.843389763s-45.275543679,20.09843208-45.815840595,44.843389763v1.080593831h-15.560119156v-1.080593831c.432223597-15.992342753,7.023720544-31.012234673,18.585684332-42.249908824,11.562033468-11.23795287,26.798002346-17.50522986,42.790345099-17.50522986,16.100346392,0,31.33631527,6.15941271,42.790275419,17.50522986,11.562033468,11.237674151,18.153391056,26.257566071,18.585684332,42.249908824v1.080593831ZM580.436350906,273.102325083c-13.290858174-23.988514129-38.576043093-38.90026305-65.914272675-38.90026305s-52.515341182,14.911748921-65.914342355,38.90026305l-.324150277.540157556h-249.972541841l-.324150277-.540157556c-13.290927854-23.988514129-38.576043093-38.90026305-65.914342355-38.90026305-27.338229582,0-52.515341182,14.911748921-65.914272675,38.90026305l-.324150277.540157556h-11.562033468v-9.725065763h2.269191302c8.860618569,0,15.992273073-7.239727822,15.992273073-15.992342753v-10.805659594c0-8.86047921-7.239727822-15.992342753-15.992273073-15.992342753h-2.269191302v-21.178747192c0-2.37747366,1.944971345-4.214232326,4.214162647-4.214232326h131.396391433v49.381772366c0,3.781660331,3.133638495,6.915577545,6.915647225,6.915577545,3.78193905,0,6.915577545-3.133917214,6.915577545-6.915577545v-49.381772366h258.617013772c3.78200873,0,6.915577545-3.133917214,6.915577545-6.915577545,0-3.782217769-3.133568815-6.915856264-6.915577545-6.915856264h-48.625328813v-50.354083839h55.324829399c3.565862092,0,7.023650864,1.728894386,9.076695528,4.646386243l32.849132698,45.707697596h-12.318407342c-3.78193905,0-6.915577545,3.133638495-6.915577545,6.915856264,0,3.781660331,3.133638495,6.915577545,6.915577545,6.915577545h40.413010798c27.662449539,0,54.676528844,4.970397161,80.501940999,14.803605922,4.106089327,1.620751387,7.347801142,4.97067588,8.75254525,9.184908206l.432223597,1.40446539h-5.294756478c-10.04921604,0-19.125981248,5.835262433-23.340143894,14.91202764l-5.078679519,11.129809871c-1.728894386,3.673796051-1.404674429,7.995892657.864447193,11.34581715,2.161117983,3.457788772,5.943126713,5.510833436,10.04921604,5.510833436h23.124066936v9.616922764h-48.301178535l-.324150277-.540157556ZM629.061679719,234.958505586v15.235899199h-20.09843208l3.78193905-8.428464653c1.944971345-4.214232326,6.051130352-6.807434546,10.697586275-6.807434546h5.618906755ZM648.727957882,308.868949638h-58.890691491v-1.080593831c-.108073319-6.483284269-1.080524152-12.858704258-2.809418538-18.90969525l-.432223597-1.404744109h62.132333625v21.39503319Z" style="fill:#fff;"/><path d="M340.821659388,5.392008155c-1.678554034-2.217714097-4.502915346-5.158104659-9.663931794-5.158104659h-.089233423c-14.480804305.092292644-29.21043754.130072181-43.455202671.165787665l-12.565731942.033835722C250.917382402.283514478,160.085276851.014597893,134.902801378.001586989c-16.641240938-.011942019-33.553462515.045704025-49.908279277.099369396-15.526910464.050532434-31.579490932.080313766-47.367983224.100290848-5.034998656,0-8.76359936,1.922775703-11.73425041,6.051397199C11.845709258,25.777477625,3.305211885,48.028113611.785482642,71.289213988l-.785482642,15.288622947c.157826319,27.92379552,8.923674021,54.92525433,25.418735796,78.15436189,3.318665086,4.674600304,7.520744745,6.853613412,13.221916423,6.853613412.014374653,0,.029265319.000147432.043639972,0,3.314979277-.037116091,4.462371453,0,8.241099151,0v17.842740782l15.441289134-.041096764v-17.866624821c27.89206071-.010357122,108.746535308-.013010904,137.215830482-.015369821,21.914895693-.002358917,88.368584888-.004201822,104.796270083-.00943567v18.223116216l15.441325992.073863602v-18.296979818c.124948907-.015627828.642215267-.038332408,11.60012384.010504554h.05329679c5.302477777,0,8.052164609-3.612534595,9.228564098-5.158141517,35.42769612-46.550065467,35.477823115-114.241559719.119567627-160.956380824ZM330.231115345,158.286530694c-9.980505883.019424211-293.179304582.003022363-294.03702907-1.205148794C5.254451693,113.511476869,5.421234526,57.33632803,36.61946543,13.969990201c.205004667-.284949853.346982009-.441670429.424383987-.520141291.09929568-.014964382.283917826-.03387258.58173115-.03387258,3.799147077.002211485,278.476762039.126128366,292.724586392.037816395,15.285195145,20.235272774,23.690939361,45.963247901,23.673100048,72.461630713-.018355326,26.507191894-8.467297217,52.20630714-23.792151661,72.371107257Z" style="fill:#fff;"/><path d="M197.955081275,72.922393622c.395708811.396479272.923526014.614827942,1.486168059.614827942.562539316,0,1.090253792-.218297306,1.485962602-.614673849l1.678475144-1.68119744c.819051492-.820489686.81802421-2.154311907-.002260019-2.973414763l-1.675290572-1.672927824c-.396016995-.395503354-.924142383-.613338384-1.486989884-.613338384s-1.091075617.217937757-1.487092612.613595204l-1.674468747,1.672568276c-.820078773.819205584-.821208783,2.153130533-.002260019,2.973620219l1.677756047,1.68094062Z" style="fill:#f2af43;"/><path d="M228.806039568,72.922393622c.395708811.396479272.923526014.614827942,1.486168059.614827942s1.090253792-.218297306,1.485962602-.614673849l1.678475144-1.68119744c.819051492-.820386958.81802421-2.154260543-.002260019-2.973414763l-1.675290572-1.672927824c-.396016995-.395503354-.924142383-.613338384-1.486989884-.613338384-.562950229,0-1.091075617.217937757-1.487092612.613595204l-1.674468747,1.672568276c-.820078773.819205584-.821208783,2.153130533-.002260019,2.973620219l1.677756047,1.68094062Z" style="fill:#f2af43;"/><path d="M204.837661464,77.177650166c-.458167522-2.039924119-2.403016744-2.76574982-3.928837866-2.76574982l-.077251564.001181374-4.75384759-.000462277h-1.371215266l.934928838,1.003037598c1.348101433,1.446155447,1.333924949,3.601494635,1.315947524,6.330210959-.002054563.323080013-.004211854.653453724-.004211854.990915677v19.045849254h8.281223869v-19.642237494h-.002260019c-.008012795-1.824451837-.064821459-3.558091994-.394476073-4.962745271Z" style="fill:#f2af43;"/><path d="M235.867263999,77.177650166c-.45827025-2.039924119-2.403016744-2.76574982-3.928837866-2.76574982l-.077251564.001181374-4.753950318-.000462277h-1.371215266l.934928838,1.003037598c1.348101433,1.446258175,1.334027677,3.601700091,1.316050252,6.330570508-.002054563.322977285-.004211854.653248267-.004211854.990556128v19.045849254h8.281121141v-19.642237494h-.002157291c-.008012795-1.824451837-.064821459-3.558091994-.394476073-4.962745271Z" style="fill:#f2af43;"/><path d="M305.710849917,100.784115371c-1.349025986-1.449494111-1.334335862-3.595639131-1.31563934-6.312798539.002260019-.327805507.004520038-.663058805.004520038-1.005605801v-19.053091588h-8.283175704v19.053091588c0,.790749888.005444592,1.615091879.03708486,2.411080903-1.803598024-.72479842-2.888920864-1.903398415-2.888920864-4.702843066v-8.473479591c0-2.056514714-.030921171-4.031976922-.404748887-5.596167006-.804155911-2.651413396-4.225208561-2.726969946-4.61269912-2.726969946h-.005033679l-.026914774.000205456-4.106146642-.000102728h-1.373578013l.937805226,1.003551238c1.347895977,1.442405869,1.332897668,3.586342234,1.313790233,6.300625254-.002362747.332017361-.004725495.671687969-.004725495,1.018857732v8.611135303c0,4.473245665,1.735386536,7.866048075,5.158185565,10.084205524.450051999.283426949.916232316.424986332,1.392069079.424986332.815969647,0,1.360017898-.419747196,1.419292037-.467618511l.017669241-.014227848.016436503-.015460586,3.364449443-3.16284546c.252300322,1.662706374.738512627,2.756247467,1.526334763,3.471338077l.170528719.154811313h8.596599271l-.93318246-1.002678049Z" style="fill:#f2af43;"/><path d="M281.718638884,95.145521641v-13.797417015h-.008731892c-.057425032-2.317136015-.706358718-7.178848156-8.033854498-7.178848156-2.158934673,0-6.32630729.857574546-8.958510522,3.220065037l-.197957133.177771053v7.121782672l.947769856-.691514501c2.799239195-2.042132774,4.12289133-2.194889524,5.822733928-2.194889524.451182008,0,.807237755.145668508,1.088610142.445326504.597569613.63650358.758750071,1.850185237.780014797,2.605904828-1.663579563.328165056-4.364507924,1.052552563-6.665515621,2.555876222-2.935251257,1.917677627-4.423473879,4.52111698-4.423473879,7.73794608,0,3.239069743,2.210401474,5.298871758,3.527992648,6.238371998.49812877.309725354.995332987.455804775,1.510206444.455804775.815866919,0,1.402239165-.368229032,1.540819431-.463920298l4.724159156-2.890975427c.478610423,2.104129209,1.682995183,3.113381859,1.740728399,3.160688169l.164878671.135138873h8.617247628l-.690333127-.9475644c-1.486784428-2.040797308-1.486784428-3.895708039-1.486784428-5.689546889ZM273.174328238,95.989073795c-1.170381744-.619450708-2.866423401-1.790192001-2.866423401-3.370459039,0-1.727579197,1.528389326-2.824561682,2.857280596-3.199211223l.002670932,1.92250585c.002362747,1.620844655.005239135,3.580897642.006471873,4.647164412Z" style="fill:#f2af43;"/><path d="M192.444998807,94.497872058c.002157291-.326624134.00441731-.660696058.00441731-1.002113044v-8.612213949c0-3.755535487-1.218253059-6.754478194-3.620756162-8.913772416-.825728821-.873035131-1.73846838-1.315587976-2.713255738-1.315587976-1.565987827,0-2.706886593,1.169662647-2.884811739,1.363099742l-2.0495292,1.924765869v-5.427898307c0-1.691675711-.017771969-3.46671531-.231138324-4.941223725-.325031847-2.494136607-2.410926811-3.385816897-4.254280626-3.385816897-.129334733,0-.202990812.005444592-.202990812.005444592l-4.200451078-.001438194h-1.226265854l.757106421.964617272c1.119942225,1.426842556,1.103608451,3.538933195,1.082857365,6.212946783-.002979116.372132701-.005855504.754024577-.005855504,1.145470169v29.266375025h8.281018413v-21.504955564c1.863488531.728034356,2.987231698,1.90786709,2.987231698,4.749892556v8.470295018c0,3.729956179.129745646,6.700135005,1.763123135,8.171818396l.170117806.153321755h8.585093719l-.928354237-1.001753496c-1.346149598-1.452524592-1.33166493-3.601083722-1.313276592-6.32127361Z" style="fill:#f2af43;"/><path d="M259.467361707,94.503470741c.002260019-.328421876.004520038-.664342907.004520038-1.007711728v-8.612213949c0-3.773204728-1.229655883-6.782420249-3.654964634-8.944025854-.776316584-.719867469-1.659367709-1.088866962-2.616177642-1.088866962-1.653512205,0-2.90689829,1.128520025-2.959392371,1.176545433l-2.135101744,2.004842458c-.052802266-.347118398-.115877346-.667373387-.189944338-.965387733-.580105829-2.527934167-3.925550565-2.656601167-4.590304385-2.656601167l-.069957866.000667733-4.070705433-.000205456h-1.373886197l.938216139,1.003653966c1.348717802,1.442816782,1.33443859,3.59815597,1.316461165,6.326923658-.002157291.323953202-.004314582.655200102-.004314582.993535244v19.048006545h8.278039297v-19.644394785h-.003081844c-.002568204-.589043177-.010580999-1.210599813-.034413928-1.821626813,1.80267347.72757208,2.887174486,1.90812391,2.887174486,4.708852663v8.470295018c0,3.729904815.129745646,6.699980913,1.761890397,8.171664304l.170220535.153475847h8.594750164l-.932463363-1.002575321c-1.34995054-1.45124049-1.335157687-3.597539602-1.316563893-6.314853101Z" style="fill:#f2af43;"/><path d="M220.012457434,84.423168887l-1.562186885-1.056148048c-3.011064628-2.032527692-4.199115613-2.834474948-4.760730376-3.601237815.878633815.119216011,1.752233952.643797278,2.670726287,1.195293319,1.215787584.729986191,2.473077338,1.484883957,3.960889047,1.484883957l.051158616-.000308184.280139649-.003338665.176281495-.217732301,3.976298268-4.91102165.744059947-.919005976-1.181270927-.052031805c-1.665017757-.073347895-3.167211406-.73198939-4.619992818-1.368903882-1.455349615-.638044502-2.830057638-1.240750523-4.289413651-1.240750523-.514873458-.000051364-1.019679557.078381574-1.500241814.233090159l-.156249507.050285426-.108583648.123119681-5.644500598,6.406435242-.014792853.01689878-.013560115.017926061c-.425191788.562847501-.909863171,1.673133281-.969240038,2.780748129-.080436137,1.429308031.949310778,4.59389987,5.309812305,7.40115186l-.508298856.591303197-5.051142839,5.877077116-.37803957.439881912.429198185.390110127c1.73292106,1.575438816,3.350067503,2.580633704,4.794630663,3.213028159l.432896399,1.026921891c.247061186.585909969.321539091,1.224879025.221481878,1.899186561-.067697847.587450891-.176486951,1.537686223.56069021,1.85085297.147825799.05259681.264114058.071755609.38410053.071755609.345474748,0,.646570938-.159331351.845760809-.264781791,1.204898401-.637274041,2.00247971-1.641184828,2.439587963-3.069671034l.174226932-.569422102c.474604025-.041707626.856341808-.115620526,1.115114003-.183215645l.172377826-.045046291.119370103-.132159757,7.268427098-8.043613672.181417902-.200679429-.03153754-.268685461c-.246958458-2.102588287-1.292217323-6.057621829-5.518864078-8.922196123ZM217.872219283,96.678893282c-2.142395442-.691309045-4.324854861-3.490188691-5.015907085-5.163938341l-.243671157-.590173187c3.764164651,2.452480345,4.785590586,4.340418175,5.252798185,5.71718076.004211854.01273829.006163689.025322487.006780058.036930768Z" style="fill:#f2af43;"/><path d="M271.904711107,72.682677498l.14833944.099338115c.284043318.192152993.605993321.409988023,1.057278058.409988023.389031481,0,.787205767-.164724579,1.253386084-.518366214.98074559-.737279889,5.962957844-4.529746144,5.962957844-4.529746144l1.406861932-1.070940901h-4.230858609c-2.114761572,0-3.824876984,1.101810708-3.896683957,1.148706106l-.017771969.01160828-.016950144.012892382-.443374669.337153768-.443066485-.337102404-.016950144-.012892382-.017874697-.011659644c-.071806973-.046895398-1.781922385-1.148706106-3.896683957-1.148706106h-4.222948542l1.397410942,1.069913619c.2197355.1682687,5.389734801,4.126229994,5.976928872,4.539813502Z" style="fill:#f2af43;"/><path d="M158.101807155,93.375124348c-1.077518594-.893595035-1.67119032-2.00948617-1.67119032-3.14037347v-20.444184141c.980925646-.032638713,2.169592289.629838949,3.405011684,1.315251922,1.675159893.929762258,3.571292695,1.983022348,5.682664577,1.786307943l.135847616-.013231911,7.603055882-6.1731274-1.027237333-.143786763c-2.306763097-.323740748-4.553100468-1.32936596-6.725339139-2.30235246-2.923811198-1.309077031-5.685752023-2.545819616-8.473715605-2.153272933l-.138052935.019406802-9.839689852,8.96682481v18.246804839c0,4.85699335,1.926125133,8.489593898,5.725006691,10.796356994,3.694349464,2.242367798,8.060438928,2.484952827,9.766032215,2.484952827h.158341865l9.874533883-7.9065077-1.777927733.334326277c-5.532702922,1.040910307-10.160343154.431360288-12.697341497-1.673395638Z" style="fill:#f2af43;"/><path d="M202.182041035,68.689973652c.586131447.585320608.586855253,1.543841681.001608457,2.130046829l-1.678494902,1.681243468c-.585246796.586205148-1.542855651.586137549-2.128019678-.00015022l-1.677721155-1.680943028c-.585164028-.586287769-.58444012-1.544944142.001608684-2.130347496l1.674503787-1.672659558c.586048804-.585403354,1.545105372-.585471055,2.131236819-.000150447l1.675277988,1.672960452Z" style="fill:#fff;"/><path d="M233.033002256,68.689973652c.586131447.585320608.586855253,1.543841681.001608457,2.130046829l-1.678494902,1.681243468c-.585246796.586205148-1.542855651.586137549-2.128019678-.00015022l-1.677721155-1.680943028c-.585164028-.586287769-.58444012-1.544944142.001608684-2.130347496l1.674503787-1.672659558c.586048804-.585403354,1.545105372-.585471055,2.131236819-.000150447l1.675277988,1.672960452Z" style="fill:#fff;"/><path d="M204.636927591,82.736768892c0-1.999999817-.027641277-3.921886564-.379866113-5.422864261-.541941396-2.412630991-3.40306724-2.304873286-3.40306724-2.304873286h-4.776335212c1.68065174,1.80300797,1.471827136,4.423106659,1.471827136,7.727737547v18.449494857h7.088499841v-18.449494857" style="fill:#fff;"/><path d="M235.666515951,82.736768892c0-1.999999817-.027641277-3.921886564-.379866113-5.422864261-.541941396-2.412630991-3.403067241-2.304873286-3.403067241-2.304873286h-4.776335212c1.68065174,1.80300797,1.471827136,4.423106659,1.471827136,7.727737547v18.449494857h7.088499841v-18.449494857" style="fill:#fff;"/><path d="M305.274184974,101.190399575c-1.684779545-1.8103252-1.470768725-4.429363421-1.470768725-7.724662189v-18.456706041h-7.090510823v18.456706041c0,1.133958606.011325004,2.243102257.084672926,3.268362877-2.53743591-.783898066-4.129181078-2.095060902-4.129181078-5.560140623v-8.473458759c0-2.015125196-.028491064-3.951244311-.388370495-5.457530872-.706799808-2.326948298-4.054612005-2.269146206-4.054612005-2.269146206h-4.116286066c1.686790527,1.805022859,1.469710313,4.424167127,1.469710313,7.726677079v8.611107526h0c0,5.184057714,2.368488699,7.952160582,4.886061753,9.583718141,1.182066553.744199899,2.112723031-.006366267,2.112723031-.006366267l4.232443803-3.978822304c.146695844,1.871408166.524029797,3.423721463,1.467699331,4.280261598h6.996418034Z" style="fill:#fff;"/><path d="M281.122286662,95.145518955v-13.201025827h-.003214909c0-3.299434594-.913800089-7.178839226-7.442958813-7.178839226-1.960651329,0-5.998688457.768415231-8.560195276,3.067510207v5.682412602c2.868918678-2.093046012,4.317512532-2.309487564,6.174178169-2.309487564,2.731342725,0,2.458518858,4.144521673,2.458518858,4.144521673-3.701348556.64518883-11.082568887,2.9111972-11.082568887,9.796923026,0,2.922871822,1.957745813,4.811541484,3.277904604,5.752851671,1.274333326.788301167,2.377084678-.0212272,2.377084678-.0212272l5.495868716-3.363174877c.260851101,2.511400702,1.674746106,3.67028031,1.674746106,3.67028031h7.231772519c-1.570871273-2.156143868-1.601135765-4.124903012-1.601135765-6.040744794M269.711575294,92.618635418c0-2.32295551,2.298438539-3.740695396,4.049012164-3.920868937,0,.299264115.010753318,7.28764326.010753318,8.014594185,0,.083883032.005432088.150162292.007649267.224713204-1.260133645-.533309439-4.067414749-2.00386064-4.067414749-4.318438451" style="fill:#fff;"/><path d="M191.85312284,93.495748635v-8.612167995c0-4.171469254-1.532028118-6.778701035-3.441314399-8.486609608-2.439579744-2.601802721-4.755409075.038652789-4.755409075.038652789l-3.07165536,2.884634791v-6.806084667c0-1.755066283-.021894922-3.451632658-.225170599-4.855836563-.404557698-3.105293594-3.826110183-2.870840516-3.826110183-2.870840516h-4.241261188c1.416041967,1.804068438,1.204147969,4.425227595,1.204147969,7.726677079v28.669968867h7.088394v-21.744793625c2.56855321.789200407,4.179878992,2.094000434,4.179878992,5.586122093v8.470277354c0,3.302615999.07863998,6.388684398,1.565919925,7.728798015h6.990279247c-1.679593328-1.81234009-1.467699331-4.426182017-1.467699331-7.728798015" style="fill:#fff;"/><path d="M258.875475614,93.495748635v-8.612167995h0c0-4.181445124-1.53941445-6.791162229-3.455409588-8.498847332-2.326480248-2.156954913-4.776313785.082598351-4.776313785.082598351l-2.997388392,2.814644053c-.058363136-.749790707-.154185352-1.448614941-.308774636-2.071520816-.526681701-2.294433185-4.066218703-2.203544487-4.066218703-2.203544487h-4.086054633c1.682662722,1.799932612,1.472894278,4.423106659,1.472894278,7.727737547v18.451615794h7.085315877v-18.451615794h-.002010982c0-1.1391549-.009314022-2.248298551-.082767785-3.276634529,2.534472357.78707947,4.127170096,2.09813626,4.127170096,5.567457853v8.470277354c0,3.302615999.07863998,6.388684398,1.564967355,7.728798015h6.996418034c-1.685837957-1.81234009-1.471827136-4.426182017-1.471827136-7.728798015" style="fill:#fff;"/><path d="M172.16748586,67.009488584l-6.692036545,5.432920598c-3.744881242.354682374-6.899670024-3.595117305-9.496392379-3.054144607v20.84685318c0,3.536127134,5.033353938,7.113557978,14.903450335,5.257115062l-8.338477961,6.67711544c-5.365542291,0-15.039027208-2.17607009-15.039027208-12.829885573v-18.047202972l9.58918712-8.738382396c4.720676649-.664989735,9.644093252,3.693293047,15.073296639,4.455611269" style="fill:#fff;"/><path d="M277.502613539,67.669329892c-1.961493301,0-3.570431721,1.051539301-3.570431721,1.051539301l-.804229369.611678077-.804240271-.611678077s-1.60893842-1.051539301-3.570431721-1.051539301h-2.462923826s5.373553793,4.114306036,5.957789971,4.525763226c.535075941.349482885.849701457.690341564,1.755070367.003441484.982384184-.738508942,5.962320397-4.529204709,5.962320397-4.529204709h-2.462923826Z" style="fill:#fff;"/><path d="M213.814839471,105.330047087c1.244728138-.658443459,1.822910809-1.65782803,2.146840813-2.716337986-1.196324328.007419573-2.475780377-.234644007-3.331790163-.544527125.325924879.77305691.362864899,1.537225624.261696978,2.21839239-.09534227.832496849-.017914897,1.120084234.204047116,1.214386468.238915207.082674618.513204884-.062942484.719205256-.171913746Z" style="fill:#fff;"/><path d="M219.677893452,84.916820566c-4.617113892-3.129623816-6.003242904-3.972613156-6.647178869-5.068292175-.284241397-.490880771-.025775527-.705382204.308014314-.705382204,2.372123658,0,4.419695321,2.737255773,7.026511933,2.70618737l3.976214142-4.911008384c-3.995917239-.176054285-6.963397423-3.446521528-10.200648533-2.404694408l-5.644517341,6.406434191c-.391736325.518712882-.800074932,1.529471599-.849558775,2.453238788-.078683187,1.399243209,1.054277181,4.318508045,5.078037157,6.89407867,4.168012484,2.66683406,5.214602228,4.716313057,5.70543544,6.162935581.153038152.462013046-.165312212,1.003509423-.730694191.799493576-2.427873732-.77671008-4.694569672-3.812093072-5.394384912-5.507262822l-5.051163425,5.877106272c5.098773859,4.635405757,9.123567439,4.176629003,10.416671994,3.83888957l7.268310921-8.043609588c-.255429655-2.175694386-1.315843867-5.824289986-5.261049856-8.498114437Z" style="fill:#fff;"/><path d="M284.464861898,68.219092755c0-.090920268-.001901481-.177935371-.010708339-.263047957-.004903819-.084011129-.022517534-.17012504-.04403429-.246325837-.021516755-.072395764-.053741849-.135979873-.103580659-.188749676-.04883803-.047963446-.112887906-.088016427-.19345064-.107542256-.052831796-.01181563-.103680736-.021528478-.158323287-.029338809-.051840368-.005907815-.106582996-.013718146-.152518767-.019625961-.029322834,0-.05274107-.012716822-.062548707-.033243975-.016612937-.018524504-.021516755-.041054306-.021516755-.069391791,0-.026434968.004903819-.047963446.021516755-.067489274.009807637-.020527153.033225873-.033243975.062548707-.033243975.150517208,0,.28732374.007810331.411420374.013718146.126098193.013618014.264915645.016621987.425131051.016621987.069454084,0,.146614169-.002002649.227777371-.003003974.083064683-.001902517.169031625-.005807682.258000906-.013618014.085966943-.003003974.173034743-.003905166.259001685-.005907815.082063903-.003905166.154420247-.007810331.225775812-.007810331.175937003,0,.359680084.015620663.553130724.044959472.19445142.023531127.375292241.074298281.536517788.15260186.165228664.072295632.300033637.17012504.407626841.302099614.10647349.130072058.160215339.299295906.160215339.501663596,0,.127168217-.020515976.238615638-.066451746.332439748-.042032731.092922918-.100678399.173129013-.172934665.243522129-.073357123.075299606-.155421027.133977224-.255089226.183843186-.100687818.054772452-.206270035.092922918-.311752174.13097325-.037128912.013718146-.050839589.030340134-.048938108.04896477.003903039.019525829.021516755.035146491.048938108.043958147.174936223.045960796.331257951.107542256.469065262.172127689.13880809.062582784.255098646.134978548.349872447.218989677.09287232.085112586.164227885.192654842.215067474.309008754.04983881.114451395.075258604.252333785.075258604.414648493,0,.215084512-.04113203.392118691-.126098193.534907571-.082063903.133977224-.192549939.249329811-.334260289.323628092-.14171035.084111262-.298122736.140786231-.47787212.172127689-.176937782.033243975-.358669898.048864638-.550228464.048864638-.0870678,0-.18284238-.000901192-.285422259-.005807682-.105582217-.002002649-.215968175-.005907815-.33035725-.007810331-.110376574-.002002649-.224775033-.004005298-.341065589-.006909139-.113388296-.002903841-.220871994-.00490649-.322551171-.00490649-.093773021,0-.179840042,0-.259001685.002002649-.073257045.001902517-.146504731.00490649-.213966616.007810331-.072356344.002002649-.146113779.007810331-.217969734.012716822-.078160864.006809007-.163227105.012716822-.256990781.022529802-.032334518.003905166-.056753533-.003003974-.073366469-.025433643-.017613716-.015720795-.031224314-.043056955-.033225873-.069491923-.001901481-.02242967.005904598-.045960796.023527658-.068390466.015602813-.032342783.040031173-.04405828.07524926-.047963446.108484477-.007810331.201256719-.031241326.2834207-.050867287.080062345-.017523179.142611052-.048864638.196352901-.095826759.04693655-.042055631.080162423-.094825434.103680736-.160312059.022417457-.059678943.035127354-.149597887.035127354-.259142792v-2.36352645ZM285.200835002,68.871355562c0,.03915179.012709897.07630093.040031172.109544905.023418236.03224265.064550265.048864638.125097414.048864638h.127098972c.14751487,0,.285322181-.013718146.407517335-.034245299.125097414-.018524504.232581112-.065486625.323451873-.124164243.091871541-.057676294.159324066-.146694045.212074547-.248328487.050830178-.106641064.077250752-.243522129.077250752-.409742003,0-.284576435-.077250752-.489948099-.230679631-.609205852-.159324066-.120259078-.38209754-.177034179-.673324319-.177034179h-.229678852c-.087968501,0-.137807311.017623312-.151508607.060680267-.019524577.041054306-.027330656.116353912-.027330656.217988353v1.1656419ZM285.200835002,70.104486736c0,.225798684.007806079.399929022.027330656.528999756.013701296.134878416.04882865.225898817.102670577.293287958.05274107.062582784.132903492.106641064.23359128.12035921.10257049.013618014.238376242.021428345.406507166.021428345.271711583,0,.466172413-.069391791.586356597-.196459875.122195154-.138883714.179840042-.343254053.179840042-.621021481,0-.203369015-.030223535-.360777233-.092772242-.4859428-.063549486-.127168217-.150517208-.223896168-.254197945-.289482925-.106482919-.070393115-.230579553-.120259078-.376192942-.145692721-.14561339-.026434968-.297131377-.041054306-.461359262-.041054306h-.129000453c-.087968501,0-.149516429.028337485-.176837704.08120742-.030323613.050767154-.04593577.120259078-.04593577.1974612v.53691022Z" style="fill:#f2af43;"/><path d="M292.802454402,67.182621721c.038129692,0,.072256266.005807682.106482919.011715497.033235449.011715497.044934991.03915179.037128912.097829408-.009707559.049865962-.012709897.101634441-.012709897.154504377v.173028881c0,.187748352.004903819.359876041.018614495.517284259,0,.019525829-.009798062.029338809-.030323613.037149141-.018504843.008811656-.043934212.015620663-.072256266.015620663-.025419794.003905166-.051840368,0-.074348331-.006809007-.027330846-.00490649-.042943004-.020527153-.046846043-.045960797-.029322834-.157408218-.061648005-.280671269-.09287232-.378400545-.033225873-.088016427-.076259383-.158409543-.132002791-.202467822-.056644109-.047863313-.135805752-.076200798-.231580332-.084111262-.097776139-.013618014-.222873552-.02733616-.38209754-.029338809h-.406607095c-.114298536,0-.208162102.002002649-.277525641.004005298-.070354785.007810331-.125097414.025333511-.168130924.048864638-.040031172.025433643-.065450967.068390466-.080162423.124164243-.012709897.054772452-.020515976.137882389-.020515976.245424645v1.070816466c0,.05957881.011709118.09382411.035227432.109444772.021516755.016621987.042933432.020527153.065450967.020527153.208162096,0,.369387643-.005807682.492583576-.024432319.118292114-.017523179.208162096-.045960796.271711583-.089918944.058655216-.041054306.09768561-.097829408.119192816-.167221199.021526305-.070393115.038129692-.160412192.051840368-.27376213.00290226-.021528478.017613716-.041154439.040031172-.052869936.022517534-.011715497.04883803-.017623312.074257825-.017623312.027421353,0,.050839589.005907815.075258604.017623312.021516755.011715497.035227432.031341458.035227432.052869936,0,.065486625-.003893483.128069409-.008806858.173028881l-.015612157.160412192c-.002001559.052769803-.007806079.101634441-.010808417.154504377-.004903819.05957881-.009698004.121260402-.009698004.193556034,0,.128069409.009698004.239616963.02050642.336445046.015612157.099731924.024419015.227801333.024419015.370590213,0,.017623312-.013710677.035146491-.035227432.045960797-.024419015.008811656-.047837251.009712848-.075258604.009712848-.025419794-.000901192-.05174029-.005807682-.074257825-.017523179-.022417457-.007910464-.037128912-.025433643-.040031172-.050867287-.013710677-.121260402-.030314063-.218088485-.051840368-.291385442-.021507206-.075299606-.0605376-.130072058-.119192816-.169223848-.063549486-.035146491-.153419468-.062582784-.271711583-.07630093-.123195933-.016621987-.28442148-.021428345-.492583576-.021428345-.022517534,0-.043934212.004806358-.065450967.021428345-.023518314.013718146-.035227432.045059604-.035227432.088016427v.803863343c0,.138783582.011709118.244423321.029322834.339248755.021516755.093924242.050839589.170225172.090870761.227901466.04303351.065486625.091881071.10363709.151517987.140786231.056644109.036147816.127999674.055773777.207161317.082108612.064550265.009812981.132903492.017623312.215067474.022529802.078160864.00490649.161225547.006809007.247192489.006809007.108484477,0,.209162876-.001902517.304036754-.007810331.096675281-.007810331.165128586-.019525829.215968175-.042055631.087978065-.023430994.167130145-.056674969.232581111-.086013778.066451746-.033243975.121194374-.078203447.167130145-.131073383.044934991-.054772452.082063903-.119257753.111386737-.201366365.027421353-.079204771.050839589-.180939345.070354785-.304202396.003912616-.02733616.020515976-.044959472.048947686-.053771128.026310918-.004806358.055633752-.008811656.087958924-.008811656.030223535,0,.05854559.005907815.081063124.015720795.026420574.013618014.037138495.030240001.032225094.050867287-.023418236.174030205-.042032731.335343589-.058645668.491850615-.019505616.142688747-.026320496.294289283-.022417457.452698826,0,.012716822-.006905377.028337485-.025419794.052769803-.017613716.025433643-.060647226.035246624-.130001232.035246624h-2.456012503c-.170032405,0-.338163329.002002649-.501390434.009812981-.168030846.009712848-.313644236.015620663-.445647026.025433643-.036128133,0-.063549486-.009812981-.081063124-.027436292-.018614495-.015620663-.028412644-.041054306-.031324392-.068390466-.00580452-.027436292,0-.04896477.017613716-.070493248.017613716-.029338809.04693655-.041054306.088969281-.044959472.106492412-.007810331.200356018-.031241326.275514544-.052769803.077260163-.024432319.13880809-.050867287.189647679-.096828083.050839589-.043056955.087968501-.097729275.113388296-.162314708.023418236-.065486625.036128133-.150599211.036128133-.254236301v-2.369334132c0-.090019076-.001000779-.177034179-.010708339-.262046633-.004903819-.086113911-.020515976-.171126364-.040121745-.245524778-.023427741-.074298281-.060556653-.13587974-.108493982-.188649544-.047837251-.04896477-.110385958-.088016427-.190548381-.109544905-.04983881-.011715497-.102579879-.022529802-.158313793-.027436292-.053751342-.009712848-.102589373-.017523179-.154429741-.021428345-.027321275,0-.04883803-.012716822-.058645668-.031341458-.015612157-.021528478-.020515976-.046962121-.020515976-.072395764,0-.025333511.004903819-.044959472.020515976-.063483976.009807637-.022529802.031324392-.035246624.058645668-.035246624.153428961,0,.290226.002903841.411420374.015620663.123195933.008811656.265907063.010814305.430034869.010814305h2.424788189Z" style="fill:#f2af43;"/><path d="M295.782274796,68.218191563c0-.090019076-.001891834-.177034179-.006805299-.262146765-.005904598-.084011129-.019615274-.168122391-.04593577-.246325837-.019615274-.072395764-.054742628-.135979873-.100678399-.188749676-.047937329-.047963446-.113388296-.088016427-.195452199-.107542256-.04883803-.010814305-.101679178-.021528478-.157322507-.028437617-.052841148-.006809007-.103680736-.014619338-.150517208-.020527153-.030323613,0-.048938108-.012716822-.061648005-.033243975-.015612157-.018524504-.022417457-.042956823-.022417457-.069391791s.006805299-.047963446.022417457-.067489274c.012709897-.020527153.031324392-.033243975.061648005-.033243975.150517208,0,.288324519.007810331.411420374.013718146.122195154.011715497.263905504.016621987.424130271.016621987.270710803-.00490649.497487395-.010814305.673424397-.017623312.177838483-.00490649.350873226-.012716822.511097993-.012716822.181841601,0,.358679304.025433643.533615528.062582784.175937003.038150465.33325951.10363709.4720676.189751001.137807311.086013778.247292567.196459875.329356471.337346238.085966943.140786231.125097414.308007429.125097414.505468629,0,.155505701-.024419015.291485574-.079161643.401931671-.04883803.11545272-.120183882.216085836-.212065136.297293257-.087968501.082108612-.195452199.146694045-.321550392.201466498-.123095855.049865962-.257000127.088917619-.397809775.120259078-.036128133.005807682-.050739511.021528478-.050739511.042956823,0,.017623312.014611378.033344107.050739511.049966095.208162096.092822785.37339076.199463849.488680537.308908621.114398783.116454044.201356797.237714446.262904725.355970875.061547928.126166892.106582996.25623895.132903492.386311008.026420574.12606676.054742628.253234977.086967722.380303061.021516755.094925567.060647226.158409543.110486036.200465173.051840368.046962121.10559194.06648795.158323287.06648795.056644109,0,.108484477-.017523179.159324066-.063483976.04883803-.037149141.088869203-.099731924.115289776-.178035504.008806858-.035146491.024419015-.055673645.051840368-.068390466.028322054-.007810331.053741849-.011715497.078170599-.006909139.026410839.006909139.049829075.019625961.06844357.040153114.020515976.019525829.028322054.039051657.024419015.056674969-.013710677.101734574-.045035069.192654842-.094864144.260144116-.050749245.079204771-.110395692.140786231-.178848997.184844511-.069344278.046861989-.151408183.082108612-.239386411.105539607-.088969281.023531127-.173034743.033243975-.261003244.033243975-.14461261,0-.273613063-.025433643-.393806658-.084111262-.115389854-.058677618-.194551498-.136881065-.236584229-.250331136-.025319717-.061581459-.050739511-.143690072-.075158526-.220992326-.024519093-.085012454-.049938888-.165218549-.071345867-.253234977-.022527232-.084111262-.045945468-.167221199-.068463002-.242520804-.022517534-.087015103-.042032731-.155505701-.059636752-.219991002-.084065464-.260144116-.186655036-.450796309-.315655489-.566148896-.129000453-.110546229-.307830037-.172127689-.538519346-.172127689-.077160085,0-.140709571.015620663-.193450641.042055631-.057744966.029338809-.082163981.085012454-.082163981.173028881v.834103344c0,.140886363.014711456.255237626.045945437.339348887.034216985.082108612.082154314.144691396.143702242.190652193.059546369.050867287.14171035.084111262.231590009.101734573.091861864.023430994.200346341.040052982.320539936.044959472.029322834,0,.04983881.013718146.065551045.035246624.015612157.025433643.025419794.047863313.025419794.078203447,0,.024432319-.009807637.050867287-.025419794.06648795-.015712235.021528478-.04013125.031341458-.071355565.031341458-.225775812,0-.425131051-.009812981-.595163455-.025433643-.172033963-.012716822-.336261848-.019625961-.499488953-.019625961-.171933885,0-.341065589.006909139-.506194175.019625961-.166129365.015620663-.33035725.025433643-.488680537.025433643-.026420574,0-.044934991-.009812981-.061547928-.031341458-.013710677-.015620663-.019615274-.042055631-.021516755-.06648795-.004903819-.025433643.001901481-.046962121.015612157-.068490599.011709118-.029338809.036128133-.041054306.067452525-.044959472.126998894-.007810331.23158997-.031241326.311742755-.050867287.077260163-.017523179.146614169-.048864638.189647679-.0987306.044934991-.043056955.077160085-.101734574.089869982-.172127689.015621804-.076200798.020515976-.178936696.020515976-.296291932v-2.312559031ZM296.52405242,68.947656492c0,.110446097.032325172.171126364.097776139.189650868.064450188.019625961.162226326.026434968.293228338.026434968.174936223,0,.323461557-.015620663.443645468-.044959472.118292114-.03224265.214076387-.085112586.285422259-.153503052.072256266-.068490599.122095076-.162414841.154420247-.281672594.030223535-.109544905.04593577-.245424645.04593577-.409742003,0-.158409543-.017613716-.288481601-.050839589-.394021207-.031324392-.113450071-.082163981-.203469147-.150517208-.267954448-.071345872-.068490599-.161225547-.116353912-.274613842-.139885039-.114389075-.034145167-.250194827-.044959472-.410519673-.044959472-.177828811,0-.29312826.017623312-.347870888.058677618-.059646447.040153114-.086067021.124164243-.086067021.249329811v1.212604021Z" style="fill:#f2af43;"/><path d="M304.301608823,67.182621721c.038129692,0,.070354785.005807682.105582217.011715497.033225873.011715497.045945637.03915179.038129692.097829408-.009807637.049865962-.013710677.101634441-.013710677.154504377v.173028881c0,.187748352.007806079.359876041.017613716.517284259,0,.019525829-.008806858.029338809-.028322054.037149141-.020616054.008811656-.04593577.015620663-.068453305.015620663-.032225094.003905166-.056644109,0-.080162423-.006809007-.025419794-.00490649-.041031952-.020527153-.04593577-.045960797-.028322054-.157408218-.061547928-.280671269-.093773021-.378400545-.030323613-.088016427-.073357123-.158409543-.131002012-.202467822-.059646447-.047863313-.13389442-.076200798-.231580332-.084111262-.096775359-.013618014-.224775033-.02733616-.383198398-.029338809h-.407517335c-.11337847,0-.207161317.002002649-.27750628.004005298-.070364607.007810331-.129010275.025333511-.167130149.048864638-.041031953.025433643-.065460785.068390466-.083064685.124164243-.012719713.054772452-.017623532.137882389-.017623532.245424645v1.070816466c0,.05957881.009807637.09382411.035227432.109444772.019515197.016621987.042933432.020527153.065460785.020527153.205250019,0,.371379384-.005807682.48957142-.024432319.120293673-.017523179.209162876-.045960796.273713141-.089918944.056644109-.041054306.099677619-.097829408.119192816-.167221199.021516755-.070393115.037128912-.160412192.050839589-.27376213.005904598-.021528478.017613716-.041154439.041031952-.052869936.022517534-.011715497.047937329-.017623312.072356344-.017623312.028322054,0,.05274107.005907815.075258604.017623312.024419015.011715497.036128133.031341458.036128133.052869936,0,.065486625-.003903039.128069409-.007806079.173028881-.003903039.054772452-.007806079.111447422-.013710677.160412192-.006805299.052769803-.011699272.101634441-.014611378.154504377-.003903039.05957881-.007806079.121260402-.007806079.193556034,0,.128069409.007806079.239616963.022417457.336445046.013710677.099731924.021516755.227801333.021516755.370590213,0,.017623312-.011709118.035146491-.036128133.045960797-.022517534.008811656-.04693655.009712848-.075258604.009712848-.024419015-.000901192-.04983881-.005807682-.072356344-.017523179-.023418236-.007910464-.035127354-.025433643-.041031952-.050867287-.013710677-.121260402-.029322834-.218088485-.050839589-.291385442-.019515197-.075299606-.062548707-.130072058-.119192816-.169223848-.064550265-.035146491-.153419468-.062582784-.273713141-.07630093-.118192036-.016621987-.284321402-.021428345-.48957142-.021428345-.022527352,0-.045945588.004806358-.065460785.021428345-.025419794.013718146-.035227432.045059604-.035227432.088016427v.803863343c0,.138783582.007806079.244423321.031224314.339248755.017613716.093924242.047937329.170225172.090970839.227901466.040031172.065486625.089869982.10363709.146623991.140786231.059536547.036147816.127989852.055773777.211054534.082108612.062548707.009812981.133904272.017623312.212065136.022529802.081163202.00490649.161225547.006809007.248293347.006809007.107483698,0,.207161317-.001902517.305838157-.007810331.094773801-.007810331.166129365-.019525829.216968954-.042055631.088969281-.023430994.167130145-.056674969.23168041-.086013778.069354006-.033243975.122095076-.078203447.167130145-.131073383.045835692-.054772452.083064683-.119257753.111386737-.201366365.030323613-.079204771.050839589-.180939345.072256266-.304202396.004003117-.02733616.019615274-.044959472.04983881-.053771128.022517534-.004806358.051840368-.008811656.085066241-.008811656.031324392,0,.059646447.005907815.085066241.015720795.022417457.013618014.033225873.030240001.029322834.050867287-.022517534.174030205-.045035069.335343589-.062548707.491850615-.015712235.142688747-.024419015.294289283-.020515976.452698826,0,.012716822-.009807637.028337485-.026410703.052769803-.017623586.025433643-.061557798.035246624-.127098976.035246624h-2.459915605c-.168040651,0-.339073835.002002649-.500389667.009812981-.16512859.009712848-.314654807.015620663-.44465604.025433643-.033225873,0-.061547928-.009812981-.082063903-.027436292-.017613716-.015620663-.028422132-.041054306-.032325172-.068390466-.00290226-.027436292.002001559-.04896477.017623495-.070493248.021506976-.029338809.04792755-.041054306.088959502-.044959472.107483698-.007810331.204268843-.031241326.276615401-.052769803.079161643-.024432319.14171035-.050867287.189547601-.096828083.050839589-.043056955.087968501-.097729275.111396533-.162314708.025409999-.065486625.036218415-.150599211.036218415-.254236301v-2.369334132c0-.090019076-.001000779-.177034179-.008806858-.262046633-.004903819-.086113911-.021516755-.171126364-.04403429-.245524778-.022407662-.074298281-.05564333-.13587974-.1015791-.188649544-.048928317-.04896477-.113388296-.088016427-.195452199-.109544905-.04983881-.011715497-.100668613-.022529802-.156421806-.027436292-.054742628-.009712848-.105582217-.017523179-.152408909-.021428345-.029332614,0-.048947888-.012716822-.061657785-.031341458-.015612157-.021528478-.022407679-.046962121-.022407679-.072395764,0-.025333511.006795522-.044959472.022407679-.063483976.012709897-.022529802.032325172-.035246624.061657785-.035246624.149506649,0,.289225228.002903841.411410594.015620663.123095855.008811656.264806205.010814305.427132609.010814305h2.42859115Z" style="fill:#f2af43;"/><g style="mask:url(#uuid-fbee9894-8838-43d5-826d-8ae609b390ae);"><path d="M60.370589301,72.979886526c-.314040156-.181986275-.627923293-.36334447-.941335369-.544074585-.417987448-1.427626587-.831892375-2.848658332-1.241714779-4.262624172.834561716-.242439007,2.581253066-.694499824,3.307941988-.888576645.18123793.70643335.363187441,1.41427988.546272852,2.123696612.469175994-.122475664,1.065224211-.253587433,1.620918268-.390665965-.170523805-.719151977-.339948469-1.437361833-.508588033-2.154158508.835189796-.212605191,2.426902329-.577519862,3.296636543-.775365166.156428882.729358282.313883136,1.459658684.472039247,2.191058227.622390698-.144458476,1.292552392-.26834732,1.620567335-.338221257-.147441853-.740035647-.293941586-1.478658114-.439776317-2.21633846.471965433-.109285977,2.195731852-.468547925,3.286550336-.676442514.26002525,1.501897086.523033881,3.006934574.789025893,4.514798424-.209621804.331940454-.419714669.663566867-.630121574.994565201-2.041418037.355022406-5.165646534,1.002416205-7.277252546,1.475674733.019350295.084162764.038626939.168639568.057940409.253430413,2.449984281-.357691747,4.893530739-.721664298,7.331110433-1.090190431.356592598,1.936528674.718209838,3.878553051,1.085165761,5.82497399.167540423-.025437253.343873971-.05699829.532298065-.087774226-.103790272-.569197798-.207109483-1.137767516-.310114655-1.706023193,1.098669487-.188738139,2.117258735-.34387398,3.052627341-.486134175.091071645.57328032.182457331,1.14687468.274157057,1.720626061.169581685-.025280233.336651048-.047734105.505133592-.072229238-.336965088-2.182736163-.668748513-4.361860864-.995036236-6.536117942-.299751329-.257512935-.599188619-.514397789-.897997827-.771125624-.234273957-1.518384195-.466035592-3.034256069-.695127886-4.547772641.795306696-.143202315,2.599153355-.423012101,3.299933964-.526645356.10064987.775208146.201770801,1.550887352.303676831,2.327037618.318593739-.044279663,1.006027641-.13425217,1.617934886-.214332412-.091385686-.781802989-.182300311-1.563291939-.272429836-2.344309827.740820729-.110699158,2.465372249-.312784004,3.29051276-.406367973.073485397.789811014.147284833,1.579779047.22155533,2.370061121.60264306-.071130097,1.325600824-.120591423,1.622174428-.161573665-.065948433-.792166315-.131425805-1.58448965-.196432118-2.376498944.130797725-.01947049,1.772128603-.170366789,3.282975796-.280437867.095625228,1.56674638.192349596,3.133963821.290173105,4.701652322-.24133986.330213233-.483150781.659955406-.725432761.989854598-1.817821446.091385688-6.528580813.606725598-7.281178048.704235069.010206305.087617206.02041261.175391432.030618915.263008638,2.431455912-.105517495,4.860556522-.21040691,7.287772892-.314197185.136293428,2.001377968.274785137,4.003384016.415318107,6.006175165.170680825-.017743269.351410935-.027478514.544859672-.03862694-.037841839-.583643646-.075369638-1.167130271-.112740416-1.750302856.34151867-.033131237,2.241775657-.135979391,3.053726482-.164557046.024809172.587412128.049775365,1.174824255.074741557,1.762236383.183085411-.006437823.36146022-.015702008.534025286-.024024073-.088559324-2.232825569-.175705468-4.465023058-.26159545-6.697220547-.275846778-.300536437-.551140475-.600915855-.825925612-.901295272-.065634393-1.573027184-.130483685-3.146054367-.194547877-4.718610491,1.508020831-.078981101,3.144955147-.124830965,3.274810752-.124673945.016958168.807083223.034230377,1.614323465.051502586,2.421249668.302106631-.005495703,1.140750868-.026379374,1.622174428-.026693414-.007536964-.806926202-.015073928-1.614009425-.022610891-2.421092648.900981209-.015387968,2.624590608-.014759888,3.279678374.00015702-.009578225.806926203-.01931347,1.613852405-.029048714,2.420935628.605312402.003768482,1.391078595.021511751,1.624215689.026850434.018095038-.807083223.035957598-1.614480485.053700867-2.421406688.665294072.004710602,2.482487437.090914628,3.274967772.128285407-.065948433,1.572242083-.132681966,3.144641186-.2002006,4.71735433-.267248173.302577698-.534967407.605469437-.80331472.908361176-2.043773338-.101120933-5.163919313-.130012628-7.279884285-.101591993-.000351643.087617206-.000665683.174920372-.000979723.262537577,2.414968803.164085986,4.832135888.330527273,7.251972314.498538761-.076939838,2.010328113-.155255075,4.020970265-.234587997,6.031926458.169110624.004396562.34057655.013189687.517695198.020569631.024652152-.587412128.049304305-1.174981275.073642417-1.762236383.811793805.028734675,2.711617595.131111769,3.056238803.164400026-.0398831.583486625-.0797662,1.166816231-.11980632,1.750459877.186577727.011148426.365071682.020098571.527587463.033759318.154821797-2.209743617.307131273-4.418545113.456771408-6.626404489-.241810921-.339163378-.483150781-.678483775-.723862561-1.017961193.097980529-1.567688501.194861917-3.134905941.290644165-4.701652322,1.512731434.109442997,3.152963171.261281417,3.285017057.280280847-.066890553.792009295-.134252167,1.58433263-.202241861,2.376812984.303519811.039726081,1.021572629.090600587,1.62452973.161259624.073956457-.790125054.147479859-1.580250107.22029917-2.369904101.82533556.092641849,2.54874991.295511795,3.292868061.406210953-.090248456.781017889-.18104415,1.562506838-.272391752,2.344309827.613125321.080708322,1.299303063.169895729,1.618877048.214332412.100297705-.776150266.200162475-1.551829473.299242144-2.327037618.70203677.103319214,2.506825549.383757081,3.301033105.526331316-.229054084,1.513830613-.46085393,3.029702486-.695284906,4.548086681-.298809209.256570814-.598246498.513769709-.897997827.771125624-1.968717741-.304933-5.292204717-.727002981-7.311325903-.91652622-.008950144.087146146-.017900289.174449311-.027007453.261595457,2.406489719.435102648,4.819731302.868635095,7.239881768,1.2987131-.294255627,1.960709767-.592593775,3.925030995-.895642526,5.892492625.167226383.024181093.334766807.052444707.508902074.079138121.093269926-.576106682.186068793-1.151899323.278710639-1.727377924.937566887.139904893,1.955999115.294098614,3.052470321.485820134-.103005171.568255678-.206324383,1.137139435-.310114655,1.706023193.186382833.033288257.366955923.062336973.537008668.087774226.40087226-2.130762516.795463716-4.256186348,1.18408841-6.375329378-.206324383-.360518109-.412020685-.721507278-.617402948-1.082967507.265992013-1.507863849.529038925-3.012901338.789025893-4.514798424,1.090975504.208051609,2.812072581.566999517,3.287686398.676285494-.145400592.737994386-.291743305,1.476773873-.438675739,2.216495481.325307243.070344997.995939997.193762781,1.620565868.338064237.157805179-.731399543.314668237-1.461699945.470746195-2.190901207.864395531.197845304,2.461289727.562759975,3.295694422.775365166-.169110624.716796675-.339006349,1.435006531-.509844194,2.154158508.554594916.137078532,1.154097575.26834732,1.619662107.390665965.184655612-.709416731.368369104-1.417106242.550983455-2.123696612.724490641.193291721,2.472124112.645823598,3.304526168.888576645-.410175065,1.41396584-.824551052,2.834997584-1.24285254,4.262467152-.309172534.178217793-.618502088.357063667-.928145683.536380601-1.982849548-.517695211-5.596785244-1.31786955-7.348068602-1.670379635-.018332969.082121503-.036899718.164085986-.055428088.246207489,2.397696595.690888362,4.805795015,1.371413398,7.22417976,2.037649607l-9.403461426,27.40738429-.001413181.007222924c-18.207382329-3.553678501-36.332210419-3.372163286-53.554838088.028420635l-.00062808-.003140402-9.675577222-28.045513904Z" style="fill:#f2af43;"/></g></svg>