<?xml version="1.0" encoding="UTF-8"?><svg id="uuid-8caa1ad5-5ce8-4368-8f96-d40fa9089137" xmlns="http://www.w3.org/2000/svg" xmlns:xlink="http://www.w3.org/1999/xlink" viewBox="0 0 453.540537877 439.154907227"><defs><filter id="uuid-4d4619f7-3bc8-459f-80cf-1078b62af661" x="31.629440308" y="133.889150376" width="59.292287913" height="29.543387126" color-interpolation-filters="sRGB" filterUnits="userSpaceOnUse"><feColorMatrix result="cm" values="-1 0 0 0 1 0 -1 0 0 1 0 0 -1 0 1 0 0 0 1 0"/><feFlood flood-color="#fff" result="bg"/><feBlend in="cm" in2="bg"/></filter><mask id="uuid-c9d4db73-bf5b-4439-8ef9-a504643bf45e" x="31.629440308" y="133.889150376" width="59.292287913" height="29.543387126" maskUnits="userSpaceOnUse"><g style="filter:url(#uuid-4d4619f7-3bc8-459f-80cf-1078b62af661);"><path d="M40.236849978,155.712470802c-.066475334-.217040162-.133071314-.434080325-.199518259-.650879197.772340196-.191704735,1.937890478-.457244144,2.811118191-.648586945-.353581722-1.331798973-.70734099-2.660461179-1.060830517-3.985262749-.332376672-1.249881091-.756322815-1.939849234-2.133363588-2.448608747.24071494.149599667.641710169.412846824.898442495.631093435.422044237.362779193.704807447.942598549.839809079,1.524710157.340942459,1.266892021.682005563,2.537524034,1.023068666,3.811051524-.616133453.12993455-1.809793993.404642971-2.532336239.583800637-.358918547-1.157346458-.71771645-2.311194214-1.076393708-3.461181334-.385219133-1.262066225.140913231-2.337374156.477753764-3.040854527.039720539-.078177891.079384338-.156235136.119076506-.234292382.017252219-.032694766.034625083-.065510177.051877303-.098204943.030161222.006273534.0602018.012547069.090363023.018820603,2.182856424.493075678,2.541505251,1.835973981,2.671319152,2.338098025.424187433,1.640287965.848374866,3.285884305,1.272682944,4.936427085-.989408742.20835373-1.899191857.394388155-3.253068811.723869358Z" style="fill:#fff;"/><path d="M49.898575342,153.907743848c-.037641206-.232723999-.075161766-.465206707-.112923617-.697930706.709753887-.100255906,1.965667191-.248649124,2.813438833-.333583129-.171315744-1.419507811-.342631487-2.838412397-.514067876-4.256351823-.171677678-1.318286745-.501158873-2.088001162-1.797005635-2.813921483.217040157.188688613.580060631.515756917.809285921.781175682.36760498.429857754.576079349,1.06517376.636763729,1.675274984.167937687,1.362684066.336116663,2.726453936.504083047,4.090706385-.57767643.062011475-1.7883479.199305363-2.537162099.306438028-.197765607-1.288004877-.395623227-2.574803305-.593480846-3.86051593-.121851339-.831484602.017010929-1.32456028.187723449-1.806657272.15370159-.432391296.411399075-.880466429.621803763-1.191127028.048165951-.074075964.096423908-.148031284.144681865-.222227893.022170018-.029557999.044248033-.059357287.066567337-.088915286.029316708.010134171.058633416.020147697.087858126.030402513,2.091109231.840653614,2.274610108,2.258713686,2.33831061,2.782433166.2077505,1.744163217.415501001,3.489774174.623130856,5.236350289-.997130015.101703645-1.92320019.181932499-3.279007463.368449503Z" style="fill:#fff;"/><path d="M66.761111604,156.000812096l-3.545029445,2.555862057c-2.28441099.004463861-6.404554626-.818213664-6.412396543-4.885153006l-.01085804-5.509852261,4.07610825-3.343673208c2.009340641-.257818136,4.108682371,1.401773011,6.420721041,1.688304632l-2.845047794,2.079435375c-1.59408093.138500337-2.940236612-1.366665347-4.045343803-1.157949683l.012909003,6.578645368c.002654188,1.349895707,2.14820291,2.711252679,6.348937331,1.994380725Z" style="fill:#fff;"/><path d="M73.509986745,148.994842517c-.259115996,1.617968659-.518290447,3.237988282-.777435671,4.859696933-.760424741-.108942338-2.278378746-.262643932-3.210963745-.344682459.024370268-.238273664.048499246-.476306037.072748869-.714579701.711080981.064545018,1.944795625.179881535,2.773143439.303301261.204734378-1.31913126.409589401-2.636935425.614444424-3.953653787.170109295-1.311771921.05178588-2.149650703-1.00316226-3.264409514.161302218.250096863.423463564.681281711.573304517,1.006178407.245029771.532043978.280620014,1.202708938.180726045,1.804003084-.190107137,1.269908143-.380272693,2.541022735-.570409039,3.812861197-.624096015-.09024238-1.730892235-.184104107-2.502778241-.267228438.139615278-1.287763587.27929292-2.575044595.418879058-3.861481089.097722361-.842463288.358797903-1.26785718.64665661-1.6796182.253986664-.36639854.619390865-.711442934.899648944-.940065006.065751465-.055255361.13150293-.110390077.197254395-.165524793.028834129-.021233501.057668257-.042467002.086623031-.063579859.024128978.017976089.048257956.036193468.072266289.054169557,1.788710379,1.488396044,1.603129297,2.891496149,1.529053335,3.414612405Z" style="fill:#fff;"/><path d="M83.846720268,151.255969101c-.455313815,1.452685156-.910868919,2.911764491-1.366424023,4.376514137-.776470511-.204855028-2.298376395-.516118852-3.175735437-.697327481.054560872-.22560595.10930427-.4512119.163956405-.676697205.67600272.14103388,1.899795081.393543641,2.747687368.60829155.360728221-1.187266392.721335797-2.371034081,1.081972854-3.550941134.347307157-1.233714675.341636847-2.056150911-.548239861-3.306635226.124384881.272174879.327550876.732435145.428801417,1.06517376.172522197.555207797.11615155,1.202708938-.061799662,1.76986058-.343114067,1.139852949-.686198674,2.283204599-1.029342201,3.429934307-.631334709-.163111895-1.782286959-.391251388-2.474667982-.547365879.304507702-1.206569574.609136049-2.410484961.913764396-3.611625515.209801464-.798307257.525287851-1.168687078.86623031-1.519401782.304387057-.311384469.710357112-.585730955,1.019931899-.765129911.073231448-.042467002.146342251-.08481336.219453055-.127159717.031005737-.015925126.062011473-.031970897.092896565-.047775378.02171608.021474791.04343216.043070227.065148241.064786308,1.573691944,1.727031643,1.19981343,3.041578396,1.056366656,3.535498588Z" style="fill:#fff;"/><path d="M82.988693811,160.434873847c-3.7585709-.814594317-5.903516398-1.237816602-11.537270822-1.956618874-.221354196-.028230905-.488129225-.105926216-.488611804-.328998623-.000574055-.284842592.279896145-.317899293.499469844-.301129653,3.981160722.303542551,8.002134258.986754579,11.907650634,1.858413931.217884671.048499247,1.702420041.771041511,1.653679506.988926188-.042587646.191222155-1.518195295-.148513863-2.034917358-.260592969Z" style="fill:#fff;"/><path d="M39.676603489,160.434873847c3.758542521-.814594317,5.903488018-1.237816602,11.537271113-1.956618874.221354702-.028230905.488100554-.105926216.488611816-.328998623.000574541-.284842592-.279896152-.317899293-.499619172-.301129653-3.981132152.303542551-8.002013613.986754579-11.907501619,1.858413931-.217913041.048499247-1.702448411.771041511-1.653707876.988926188.042587646.191222155,1.518195295-.148513863,2.034945738-.260592969Z" style="fill:#fff;"/></g></mask><filter id="uuid-25d2b5a7-e0c4-49c8-97bf-cb134866bff8" x="359.98107543" y="147.260354054" width="19.317057318" height="9.625051125" color-interpolation-filters="sRGB" filterUnits="userSpaceOnUse"><feColorMatrix result="cm" values="-1 0 0 0 1 0 -1 0 0 1 0 0 -1 0 1 0 0 0 1 0"/><feFlood flood-color="#fff" result="bg"/><feBlend in="cm" in2="bg"/></filter><mask id="uuid-8ffa85e0-09b0-47b0-bb79-8827fd12567f" x="359.98107543" y="147.260354054" width="19.317057318" height="9.625051125" maskUnits="userSpaceOnUse"><g style="filter:url(#uuid-25d2b5a7-e0c4-49c8-97bf-cb134866bff8);"><path d="M362.785315776,154.370255635c-.021657249-.07071033-.043353803-.14142066-.065001804-.21205238.251623615-.062456206.631352622-.148967288.915844761-.211305578-.115194718-.433891793-.230447279-.866761646-.345611961-1.298373729-.108286245-.407203458-.246405252-.631990772-.695036541-.797741446.078423425.048738638.209065168.134502918.292706957.205606302.137499378.118191197.229621867.307092724.273604556.496741052.111076925.412745513.222193155.826709492.333309386,1.241616799-.200732433.042331865-.589619587.131830154-.825019341.190198604-.116933423-.377056252-.23382754-.752972649-.350682351-1.127631275-.125501989-.411173299.045908651-.761501911.155649194-.990691425.012940704-.025469869.025862922-.050900432.038794383-.076330996.005620665-.010651751.011280636-.021342807.016901301-.031994557.009826338.002043878.019613371.004087757.029439709.006131635.711160998.160640978.828006547.598148863.870299106.761737743.138197618.534395581.276395236,1.070520597.414632159,1.608257133-.322343193.067880345-.618744853.128489199-1.059829514.235832119Z" style="fill:#fff;"/><path d="M365.933045594,153.782286858c-.01226327-.075820026-.024487234-.151561442-.03678981-.227381468.231233386-.032662748.640402102-.081008333.916600811-.108679301-.0558136-.462466785-.1116272-.924737042-.167480105-1.386692857-.055931516-.429489593-.163274433-.680257746-.58545322-.916758056.070710328.061473572.188980133.168030384.263660302.254502161.119763408.140044973.187683056.347026962.207453648.545794133.05471305.443953963.109504711.888261675.16422711,1.332726607-.188203375.020202951-.582632584.064932443-.826591576.099835597-.0644308-.41962395-.128891578-.838854846-.193352355-1.257731994-.039698406-.270892494.005542055-.431533472.061159128-.588597663.050075019-.140870385.134031251-.286850467.202579785-.388061751.015692166-.024133487.031414307-.048227668.047136449-.07240046.007222853-.009629812.014415733-.019338234.021687223-.028968045.009551201.00330165.019102401.006563994.028623629.009904949.681270335.2738797.741053776.735874821.761807002.906499358.067683816.56823749.135367633,1.136946644.203012144,1.70597024-.324858735.033134413-.626566618.059272472-1.068280165.120038548Z" style="fill:#fff;"/><path d="M371.426754658,154.464195429l-1.154948466.832683905c-.744246842.001454298-2.086563922-.266568905-2.08911877-1.591552358l-.003537482-1.795075476,1.327970626-1.089347861c.654630639-.08399554,1.338583071.456688898,2.091830839.550039111l-.926898813.677467066c-.519341617.045122545-.957910736-.44525104-1.317947761-.377252779l.004205673,2.143281599c.000864718.439787596.6998711.8833092,2.068444154.649756792Z" style="fill:#fff;"/><path d="M373.625496054,152.181694269c-.084418374.52712409-.168855793,1.054916372-.253283689,1.583258928-.247741634-.035492734-.742281574-.085567754-1.046111946-.112295394.007939681-.077628072.015800752-.155177534.023701127-.232805606.231665745.021028364.633602276.058604281.903472823.098813658.066701183-.429764731.13344167-.859097103.200182158-1.288075726.055420546-.427367104.016871516-.700342781-.326824003-1.063524244.052551256.081479997.137961786.221957329.186779033.327806645.07982917.173336607.091424249.391835065.058879417.587732945-.061935719.413728147-.12389047.827849347-.185835705,1.242206379-.203326586-.029400404-.563913887-.059979969-.815389529-.087061357.045485786-.419545339.09099189-.838933456.136468183-1.258046437.031837335-.274469281.116894117-.413059956.210676687-.547209126.08274727-.119370357.201793678-.231783667.293100011-.306267311.021421417-.018001852.042842834-.035964398.064264251-.053926944.009393979-.006917742.018787958-.013835484.028221243-.020713921.00786107.005856498.015722141.011791606.023543906.017648104.582750677.484910141.522289519.942031398.498156033,1.112459409Z" style="fill:#fff;"/><path d="M376.993139317,152.918355197c-.148338399.473275757-.296755408.948634697-.445172418,1.425840989-.252969246-.06674049-.748796684-.168148301-1.034634783-.227184941.017775592-.07350101.035610649-.147002021.053415974-.220463726.220237467.045947958.61894138.128214062.895179394.19817759.117523003-.38680398.2350067-.772468104.352500003-1.156874458.113150504-.401936541.111303152-.669881133-.178613125-1.077281118.040523818.088672877.106714031.238622799.139700825.347026962.056206655.180883235.03784145.391835065-.020133944.57660953-.111784421.371356976-.223559245.743853807-.335353264,1.117451189-.205684908-.053140837-.580657967-.12746726-.806231382-.178328387.099206709-.393092836.198452723-.785320955.297698737-1.17664505.068352007-.260083521.171135503-.380750955.282212428-.495011617.099167403-.101447116.231429913-.190827489.332287447-.249274549.023858349-.013835484.047677392-.027631663.071496435-.041427842.010101475-.005188307.020202951-.010415919.030265121-.01556492.007074963.006996353.014149927.014032011.02122489.021106975.512699013.56265613.390891727.990927257.344157663,1.151843372Z" style="fill:#fff;"/><path d="M376.713599653,155.908785071c-1.224518939-.265389744-1.923328794-.403272923-3.758770822-.637454217-.072115816-.009197453-.159029455-.0345101-.159186676-.107185698-.000187023-.092799939.091188417-.103569605.162724158-.098106161,1.297037314.098892268,2.607045394.321478483,3.879438253.605459659.070985466.015800752.554637824.251200512.538758461.322185979-.013874789.062298985-.494618551-.04838489-.662963374-.084899563Z" style="fill:#fff;"/><path d="M362.602790967,155.908785071c1.224509694-.265389744,1.923319549-.403272923,3.758770917-.637454217.07211598-.009197453.159020114-.0345101.15918668-.107185698.000187182-.092799939-.091188419-.103569605-.162772808-.098106161-1.297028006.098892268-2.607006089.321478483-3.879389705.605459659-.070994709.015800752-.554647066.251200512-.538767704.322185979.013874789.062298985.494618551-.04838489.66297262-.084899563Z" style="fill:#fff;"/></g></mask></defs><path d="M192.690562292,273.744995117c-.059997559-4.909912109-2.66998291-7.169921875-7.58001709-7.199951172-7.819946289-.060058594-15.650024414-.040039062-23.469970703-.010009766-5.880004883.020019531-8.170043945,2.360107422-8.210083008,8.369873047-.039916992,6.050048828-.010009766,12.100097656-.010009766,18.150146484.010009766,6.489990234-.079833984,12.989990234.030029297,19.479980469.090087891,4.610107422,2.540039062,7.099853516,7.150024414,7.169921875,8.260009766.120117188,16.530029297.110107422,24.790039062.010009766,4.709960938-.050048828,7.229980469-2.300048828,7.289978027-7.020019531.16998291-12.979980469.16998291-25.969970703.010009766-38.949951172ZM178.970591588,306.12512207h-11.800109863v-26.070068359h11.800109863v26.070068359Z" style="fill:#fff;"/><path d="M136.770579381,274.364868164c-.040039062-5.509765625-2.41003418-7.799804688-7.810058594-7.829833984-7.819946289-.040039062-15.629882812-.040039062-23.449951172,0-5.459960938.030029297-7.830078125,2.369873047-7.880004883,7.770019531-.059936523,6.340087891-.010009766,12.679931641-.020019531,19.020019531,0,6.199951172-.029907227,12.399902344.020019531,18.58984375.039916992,5.429931641,2.33996582,7.760009766,7.819946289,7.820068359,7.810058594.070068359,15.630126953.070068359,23.450073242,0,5.529907227-.050048828,7.829956055-2.25,7.869995117-7.760009766.079956055-12.530029297.079956055-25.070068359,0-37.610107422ZM123.020579381,306.164916992h-11.820068359v-26h11.820068359v26Z" style="fill:#fff;"/><path d="M80.840647741,273.634887695c-.080078125-4.659912109-2.520019531-7.040039062-7.150146484-7.08984375-8.109863281-.070068359-16.219970703-.060058594-24.33996582,0-5.140014648.030029297-7.5,2.419921875-7.519897461,7.609863281-.040039062,12.689941406-.040039062,25.370117188,0,38.050048828.019897461,5.139892578,2.349853516,7.469970703,7.599853516,7.520019531,7.970092773.080078125,15.930053711.090087891,23.900146484,0,5.209960938-.050048828,7.459960938-2.349853516,7.529907227-7.599853516.079956055-6.340087891.020019531-12.680175781.020019531-19.020019531-.010009766-6.490234375.079956055-12.979980469-.039916992-19.470214844ZM67.230540319,306.12512207h-11.909912109v-26.16015625h11.909912109v26.16015625Z" style="fill:#fff;"/><path d="M431.460581823,278.094848633c-2.720031738-4.679931641-6.049987793-6.799804688-11.440002441-6.289794922-3.739990234.349853516-7.530029297.059814453-11.369995117.059814453-1.010009766-15.659912109-2-30.649902344-2.950012207-45.649902344-.679992676-10.739990234-1.210021973-21.5-1.989990234-32.229980469-.369995117-5.060058594-3.350036621-7.609863281-7.690002441-7.159912109-3.950012207.399902344-6.200012207,3.639892578-5.880004883,8.359863281,1.349975586,19.860107422,2.700012207,39.719970703,4,59.580078125.369995117,5.550048828.599975586,11.099853516.909973145,16.760009766h-51.729980469c4.020019531-62.399902344,8.010009766-124.420043945,12-186.350097656h27.650024414c.209960938,1.680053711.459960938,3.120117188.549987793,4.570068359,1.529968262,24.290039062,3.039978027,48.570068359,4.559997559,72.849975586.299987793,4.739990234,2.979980469,7.510009766,7.059997559,7.380004883,4.08996582-.130004883,6.570007324-3.08996582,6.320007324-7.899902344-.460021973-8.840087891-1.070007324-17.66015625-1.619995117-26.490112305-1.010009766-16.33996582-2.100036621-32.670043945-2.929992676-49.019897461-.070007324-1.440063477,1.159973145-3.510009766,2.409973145-4.350097656,7.859985352-5.270019531,11.309997559-13.399902344,9.039978027-22.109985352-2.209960938-8.469970703-9.440002441-14.41003418-18.859985352-14.609985352-13.570007324-.280029297-27.159973145-.330078125-40.729980469.020019531-8.730041504.229980469-15.239990234,4.699951172-18.170043945,13.079956055-2.709960938,7.720092773-1.709960938,15.800048828,5.060058594,20.430053711,6.029968262,4.119995117,6.779968262,8.550048828,5.519958496,14.58996582-.08001709.430053711-.019958496.880004883-.039978027,1.319946289-1.270019531,20.320068359-2.520019531,40.630126953-3.820007324,60.940063477-1.66998291,26.190063477-3.369995117,52.380004883-5.08001709,78.569946289-.799987793,12.340087891-1.659973145,24.680175781-2.5,37.180175781h-24.899963379v-5.430175781c-.010009766-29.510009766.08996582-59.030029297-.070007324-88.540039062-.090026855-17.169921875-11.239990234-31.08984375-27.980041504-35.239990234-3.789978027-.939941406-7.739990234-1.179931641-11.859985352-1.769897461,0-7.680053711.070007324-15.200073242-.019958496-22.710083008-.050048828-4.579956055-2.540039062-7.039916992-7.120056152-7.209960938-2.579956055-.099975586-5.16998291-.020019531-7.969970703-.020019531v-5.489990234c0-23.760009766.039978027-47.520019531-.010009766-71.280029297C249.770579381,14.005004883,235.75055985.025024414,215.810557409.015014648,173.610545202-.005004883,131.400584264-.005004883,89.200511022.015014648c-19.919921875.010009766-33.899902344,14.010009766-34,33.949951172-.030029297,4.540039062-.010009766,9.070068359-.010009766,14.030029297-2.659912109,0-4.829956055-.050048828-7.010009766.010009766-5.619873047.149902344-8.039916992,2.599975586-8.109863281,8.149902344-.030029297,2.360107422-.010009766,4.720092773-.010009766,7.080078125v15.239990234c-1.330078125.109985352-1.920043945.239990234-2.5.199951172C19.07062821,77.565063477-.119435267,94.174926758.00055985,118.03503418c.479980469,103.879882812.199951172,207.770019531.199951172,311.659912109,0,7.580078125,1.850097656,9.459960938,9.300048828,9.459960938h411.720031738c7.379943848,0,9.279968262-1.949951172,9.279968262-9.509765625v-106.41015625c5.119995117,0,9.679992676-.209960938,14.210021973.060058594,3.979980469.229980469,6.859985352-1.120117188,8.829956055-4.540039062v-4.429931641c-7.389953613-12.060058594-14.959960938-24.020019531-22.079956055-36.230224609ZM342.860545202,64.875c.179992676-3.489990234,2.760009766-5.670043945,7.030029297-5.710083008,6.489990234-.069946289,12.979980469-.019897461,19.459960938-.019897461,6.49005127,0,12.980041504.009887695,19.470031738,0,3.820007324-.010009766,6.210021973,1.699951172,6.549987793,5.619995117.320007324,3.699951172-2.020019531,6.349975586-6.229980469,6.399902344-13.270019531.16015625-26.540039062.16015625-39.809997559.010009766-4.16998291-.049926758-6.650024414-2.799926758-6.470031738-6.299926758ZM270.240550085,154.974975586c10.49029541.190429688,19.251647949,9.042480469,20.810180664,19.570068359h.209838867v2.076416016c.046203613.830566406.047241211,1.667724609,0,2.509765625v14.473876953h.08001709v19.08984375h-.08001709v14.140136719h.119995117v20.129882812c-.04119873.002441406-.078918457.005859375-.119995117.008300781v24.601806641h-56.599975586v-13.689208984l-15.396789551-12.042236328c-.742614746-.349365234-1.448669434-.750732422-2.073242188-1.198486328-6.460021973-4.620117188-12.630004883-9.640136719-18.900024414-14.530273438-1.08996582-.849853516-2.08996582-1.829833984-3.739990234-3.279785156h.409301758v-52.290039062h.190979004c1.359008789-10.55078125,10.035522461-19.379638672,20.659729004-19.570068359,18.140014648-.33996582,36.289978027-.33996582,54.429992676,0ZM251.480540319,124.395019531v16.380004883h-16.519958496v-16.380004883h16.519958496ZM70.080637975,26.444946289c1.989990234-8.58996582,9.760009766-13.099975586,19.739990234-13.109985352,39.109863281-.019897461,78.209960938-.029907227,117.319946289.020019531,4.700012207.010009766,9.479980469-.049926758,14.08001709.739990234,7.979980469,1.380004883,13.559997559,7.66003418,14.690002441,15.619995117.209960938,1.459960938.389953613,2.939941406.389953613,4.400024414.020019531,24.349975586.020019531,48.700073242.010009766,73.049926758,0,1-.130004883,2.010009766-.229980469,3.540039062-2.5,0-4.799987793-.030029297-7.109985352.010009766-5.450012207.090087891-7.970031738,2.590087891-8.059997559,8.25-.110046387,6.640014648-.030029297,13.280029297-.060058594,19.920043945,0,.569946289-.159973145,1.140014648-.279968262,1.859985352-3.700012207.489990234-7.390014648.659912109-10.91998291,1.510009766-17.100036621,4.140014648-28.429992676,18.479980469-28.66003418,36.270019531-.140014648,10.919921875-.029968262,21.83984375-.029968262,32.760009766v5.369873047c-14.899963379-11.540039062-28.879943848-22.359863281-42.860046387-33.179931641-3.729980469-2.889892578-7.66003418-5.570068359-11.099975586-8.770019531-1.489990234-1.379882812-2.790039062-3.809936523-2.820068359-5.770019531-.209960938-17.559936523-.039916992-35.119873047-.149902344-52.679931641-.100097656-18.530029297-12.030029297-33.189941406-30.020019531-36.949951172-2.989990234-.630126953-6.119995117-.590087891-9.859985352-.920043945v-18.849975586c0-9.930053711-1.5-11.430053711-11.540039062-11.550048828-1.019897461-.010009766-2.039916992-.08996582-4.199951172-.179931641.489990234-7.25.08996582-14.540039062,1.670043945-21.360107422ZM53.670481725,61.954956055h16.400146484v16.430053711h-16.400146484v-16.430053711ZM13.650584264,198.555053711h.243530273l-.015869141-13.699951172h-.187744141v-20.850097656h.163818359l-.015991211-13.810058594h-.137817383v-19.08996582h.115722656l-.017944336-15.634887695c-.046508789-.737182617-.04699707-1.481689453-.002563477-2.229980469l-.000244141-.145996094h.008544922c.673095703-10.031494141,9.339599609-20.609375,22.176513672-20.919189453,17.400024414-.409912109,34.830078125-.33996582,52.229980469-.010009766,12.920043945.239990234,22.709960938,11.530029297,21.850097656,24.800048828h-.105224609l.036376953,14.140014648h.108764648v19.08996582h-.059936523l.039306641,15.381835938c.051513672,1.008422852.067138672,1.956787109.007324219,2.856811523l.013305664,5.175170898L13.950511022,247.46496582l-.000244141-.139160156c-.060302734.046875-.119262695.092285156-.1796875.139160156v-16.010009766h.161376953l-.015625-13.619873047h-.26574707v-19.280029297ZM220.770579381,420.065063477v5.449951172h-59.439941406c0-3.860107422,0-7.770019531-.010009766-11.670166016,0-4.429931641.129882812-8.859863281-.050048828-13.279785156-.16003418-3.979980469-3.140014648-6.640136719-6.900024414-6.520019531-3.539916992.109863281-6.229980469,2.719970703-6.309936523,6.580078125-.140136719,6.789794922-.050048828,13.579833984-.080078125,20.359863281-.010009766,1.540039062-.139892578,3.080078125-.219970703,4.629882812h-60.66003418v-79.699951172h60.890014648c0,7.940185547-.040039062,15.580078125.010009766,23.230224609.030029297,5.359863281,2.280029297,8.069824219,6.580078125,8.079833984,4.279907227.010009766,6.709960938-2.829833984,6.729980469-8,.039916992-9.739990234.049926758-19.479980469,0-29.219970703-.030029297-5.330078125-2.520019531-7.870117188-7.860107422-7.879882812-24.049926758-.050048828-48.099975586-.040039062-72.149902344-.010253906-5.860107422.010253906-8.320068359,2.650146484-8.330078125,8.91015625-.030029297,26.270019531-.010009766,52.530029297-.010009766,78.790039062v5.619873047H13.470530553v-4.679931641c0-50.600097656-.030029297-101.209960938.100097656-151.820068359.010009766-2.030029297.919921875-4.809814453,2.399902344-5.969970703,33.100097656-25.879882812,66.350097656-51.580078125,99.570068359-77.310058594.459960938-.349853516.989990234-.609863281,1.859985352-1.149902344,8.079956055,6.229980469,16.219970703,12.489990234,24.33996582,18.780029297,25.060058594,19.419921875,50.08001709,38.899902344,75.230041504,58.199951172,2.899963379,2.229980469,3.889953613,4.489990234,3.879943848,8.090087891-.119995117,50.159912109-.079956055,100.329833984-.079956055,150.489990234ZM355.980540319,425.545043945h-60.619995117v-43.959960938h60.619995117v43.959960938ZM429.620554967,309.904907227c-28.630004883.010009766-57.260009766.010009766-85.890014648.010009766-1.179992676,0-2.369995117-.079833984-3.539978027.040039062-3.66998291.389892578-6.359985352,3.310058594-6.099975586,6.840087891.269958496,3.689941406,2.289978027,5.969970703,6.079956055,6.369873047,1.320007324.140136719,2.66003418.060058594,3.980041504.060058594,22.579956055.010009766,45.159973145.010009766,67.739990234.010009766h5.070007324v102.260009766h-47.070007324v-5.320068359c0-14.310058594.020019531-28.629882812-.010009766-42.939941406-.020019531-7.390136719-2.16998291-9.530029297-9.5-9.530029297-23.159973145-.020019531-46.33001709-.020019531-69.5,0-7.119995117,0-9.16998291,2.090087891-9.179992676,9.229980469-.020019531,14.460205078-.010009766,28.929931641-.010009766,43.390136719v5.119873047h-46.950012207v-102.209960938h5.030029297c23.019958496,0,46.039978027.010009766,69.059997559-.010009766,5.719970703-.010009766,8.450012207-2.229980469,8.409973145-6.709960938-.029968262-4.389892578-2.859985352-6.600097656-8.559997559-6.600097656-23.019958496-.010009766-46.039978027,0-69.059997559,0h-4.959960938v-24.609863281h5.00994873c58.58001709,0,117.170043945.030029297,175.75-.080078125,3.390014648-.010009766,5.360046387.939941406,7.020019531,3.900146484,3.809997559,6.779785156,7.979980469,13.349853516,12.33001709,20.559814453-2.08001709.090087891-3.619995117.219970703-5.150024414.219970703Z" style="fill:#fff;"/><g style="mask:url(#uuid-c9d4db73-bf5b-4439-8ef9-a504643bf45e);"><path d="M33.306766212,141.881619629c-.24128978-.139827431-.482458915-.279172282-.723266115-.418034554-.321156697-1.096903367-.639176627-2.188739648-.954059789-3.275146909.64122759-.186275715,1.983281345-.533612362,2.541625896-.682729449.139252447.542781373.27905163,1.086648551.419723572,1.631722177.360486931-.094103017.818454933-.194841502,1.245417199-.300164494-.13102035-.55255361-.261196187-1.10438335-.390768798-1.655127286.641710169-.163353185,1.864687418-.443731916,2.532939464-.595744481.12019065.560395528.241169135,1.121514925.362686885,1.683478836.478207998-.110993302.993120388-.206182122,1.245147563-.259869099-.113285552-.56859938-.225847234-1.136112957-.337897968-1.702902664.36263017-.083968845,1.687069772-.360004361,2.525189822-.519738199.199787938,1.153968401.401868128,2.3103497.606240572,3.468902607-.161060928.255043304-.322483791.509845318-.484147943.764164752-1.568504214.272778103-3.968975588.770196997-5.591408068,1.133820704.014867616.064665663.029678643.129572615.044517964.194720857,1.882422217-.274829066,3.759897994-.554483928,5.632789265-.837637492.273984545,1.487913465.551829726,2.980049501.833776834,4.475563594.128728098-.019544473.264212309-.043794096.408986177-.067440495-.079746272-.437337737-.15913061-.874192894-.238273658-1.310806762.844152295-.145015161,1.626775696-.264212316,2.345457305-.373516589.069974036.440474504.140189362.881190298.210645978,1.322026737.130296481-.019423828.258662644-.036676047.388114611-.055496651-.258903934-1.677084657-.513826586-3.351394481-.764526667-5.021964314-.230311095-.197857624-.4603809-.395232669-.689968125-.592487069-.180002176-1.166636115-.358074033-2.331341911-.534094928-3.494238035.611066367-.110028142,1.997034863-.325017342,2.535473006-.404642971.077333374.595623837.155028684,1.191609608.233327217,1.787957314.244788482-.03402186.77297181-.103151383,1.243124946-.164680279-.070215326-.600690922-.140068717-1.201140554-.209318884-1.801228252.569202591-.08505465,1.894245416-.240324627,2.528234313-.312228983.056461808.606843812.113164907,1.213808268.17022994,1.821014014.463035087-.054652137,1.018512838-.092655278,1.246382358-.124143595-.050670854-.608653485-.100979773-1.217427615-.150926757-1.825960455.100497193-.014959967,1.361598227-.130899709,2.522443358-.215471779.073472738,1.203794742.14778999,2.407951418.222951757,3.61247003-.185431196.25371621-.371224326.507070485-.557379391.760545405-1.39670589.070215328-5.016173233.466171866-5.59442419.541092345.007841918.06731985.015683836.134760345.023525754.202080196,1.86818612-.081073368,3.734562567-.161664157,5.599491275-.241410431.104719764,1.537739806.211128557,3.075962191.319105734,4.6147878.131140995-.013632873.270003264-.021112856.418637768-.029678644-.029075418-.448437067-.057909547-.896753489-.086623031-1.344828622.262402636-.025456072,1.722447093-.104478477,2.346301819-.126435848.019061893.451332545.03824443.902665089.057426968,1.353997634.140671942-.004946441.277724537-.012064489.410313271-.018458669-.068043718-1.715570378-.135001632-3.430658176-.200994387-5.145745974-.211944259-.230914325-.423463564-.461708005-.634592121-.692501686-.050429564-1.208620538-.100255903-2.417241075-.149479019-3.625499678,1.158673523-.060684381,2.4163965-.09591269,2.516169824-.095792045.013029648.62011475.026300586,1.240350144.039571524,1.860344249.232120768-.004222571.876485125-.020268342,1.246382358-.020509632-.005790955-.619994105-.011581909-1.240108855-.017372864-1.860223604.692260378-.0118232,2.016579335-.01134062,2.519909815.000120645-.007359338.619994105-.014839321,1.23998821-.022319305,1.86010296.465086051.002895477,1.068822063.01652835,1.247950741.020630277.013903151-.62011475.02762768-1.240470789.041260552-1.860464894.511172399.003619347,1.907395709.069853393,2.516290469.098566878-.050670854,1.208017313-.101944932,2.416155271-.153822235,3.624534519-.205337603.232482709-.41103714.465206707-.617219257.697930706-1.570313887-.077695311-3.967648494-.099893971-5.593430139-.078057246-.000270182.06731985-.000511471.134398411-.000752761.201718261,1.855518407.126073913,3.712725842.2539575,5.57198424.383047535-.059115996,1.544616564-.119288766,3.089474419-.180243466,4.634573563.129934546.003378057.261678766.010134171.397766202.015804481.018941248-.451332545.037882495-.902785734.056582453-1.353997634.623734081.022078015,2.083445696.100738486,2.348232137.126315203-.030643802.448316422-.061287604.8965122-.092052051,1.344949267.143355229.008565787.280499369.015442546.40536683.025938652.118955861-1.697835579.235981405-3.394947288.350955985-5.091335128-.18579313-.260592969-.371224326-.521306582-.556172942-.782140841.075282411-1.204518611.149720308-2.408675288.223313691-3.61247003,1.162292869.08408949,2.422549389.200753102,2.524011742.215351134-.051394723.60853284-.103151381,1.21730697-.155390618,1.826201745.233206572.030523158.784915654.069612103,1.248192031.123902305.056823743-.607085101.113314753-1.214170203.169264781-1.820893369.63413876.071180487,1.958307853.227053689,2.530043986.312108338-.069341547.600087698-.139103558,1.20053733-.209289622,1.801228252.471089034.062011475.998307202.130537774,1.243848846.164680279.077062792-.596347706.153792942-1.192333477.229919867-1.787957314.539403303.07938434,1.926095667.294856118,2.536317521.404401681-.175991536,1.163137413-.354092752,2.32784321-.534215573,3.494479324-.229587225.197133755-.459657031.39475009-.689968125.592487069-1.51264563-.234292382-4.066215369-.558585854-5.617588009-.70420424-.006876759.066957916-.013753517.134036476-.020750921.200994392,1.849003583.334306998,3.703194896.667407548,5.562694584.99785391-.226088524,1.506492778-.455313815,3.015760389-.688158452,4.527440898.128486808.018579314.257214905.040295394.391010088.060805026.071663065-.442646112.142964195-.885050935.21414468-1.327214467.720370638.1074946,1.502873394.225967885,2.34533666.373275299-.079143048.436613868-.158527385.873710315-.238273658,1.310806762.143205484.025576717.281947108.047896023.412605523.067440495.308006404-1.637151197.611187012-3.270200468.909783115-4.898423944-.158527385-.277000674-.316572191-.554363283-.474375707-.832087827.204372444-1.158552907.406482047-2.314934206.606240572-3.468902607.838240695.159854483,2.160629333.435648708,2.526062705.519617554-.111717168.567030997-.224158205,1.134665218-.337052349,1.703023309.249946739.054048912.765221063.148875798,1.245146436.259748455.121248114-.561963911.241772359-1.123083309.36169338-1.683358191.664150119.152012565,1.891108649.432391296,2.532215594.595744481-.129934546.550743936-.260472317,1.102573677-.391733958,1.655127286.426117751.105322992.886739941.206182122,1.244452039.300164494.141878391-.545073626.283032912-1.088820159.423342919-1.631722177.556655522.148513863,1.899433147.496212445,2.539001382.682729449-.315154127,1.086407261-.633535991,2.178243542-.954933978,3.275026264-.237549788.136931953-.475220221.274346487-.713131944.412122954-1.52350367-.397766212-4.300236932-1.012572587-5.645818913-1.283420371-.014085963.063097279-.028351549.126073913-.042587646.189171192,1.842247469.530837529,3.692487082,1.053712495,5.550630095,1.565608776l-7.225060522,21.058204131-.001085804.005549665c-13.989469761-2.730435217-27.915509755-2.590969721-41.1483526.021836726l-.00048258-.002412898-7.434138116-21.548504975Z" style="fill:#f2af43;"/></g><path d="M363.161492209,213.731458803c.193842132-.193465447.300594678-.451519825.300594678-.726600368,0-.275030318-.106727434-.533034472-.300519341-.726499918l-.821951912-.820620959c-.401144476-.400441331-1.053261651-.399939084-1.453728094.001104943l-.817908826.819063994c-.193364997.193616121-.29986642.451821173-.29986642.727002165s.106551647.533436269.299991981.72705239l.81773304.818662196c.400516668.400943577,1.052684068.401496049,1.453828544.001104943l.821826351-.820269386Z" style="fill:#f2af43;"/><path d="M363.161492209,198.648159504c.193842132-.193465447.300594678-.451519825.300594678-.726600368s-.106727434-.533034472-.300519341-.726499918l-.821951912-.820620959c-.401094251-.400441331-1.053236539-.399939084-1.453728094.001104943l-.817908826.819063994c-.193364997.193616121-.29986642.451821173-.29986642.727002165,0,.275231217.106551647.533436269.299991981.72705239l.81773304.818662196c.400516668.400943577,1.052684068.401496049,1.453828544.001104943l.821826351-.820269386Z" style="fill:#f2af43;"/><path d="M365.241923793,210.366506053c-.997336476.224002049-1.352198915,1.174855589-1.352198915,1.920842681l.000577584.037768955-.000226011,2.324197042v.670398957l.490393723-.457094764c.707037857-.659098405,1.760801755-.6521674,3.094894674-.643378082.157956602.001004494.319479155.002059212.484467211.002059212h9.311679786v-4.048761695h-9.603259134v.001104943c-.891990221.003917525-1.73958183.03169177-2.426328918.192862751Z" style="fill:#f2af43;"/><path d="M365.241923793,195.195866045c-.997336476.224052273-1.352198915,1.174855589-1.352198915,1.920842681l.000577584.037768955-.000226011,2.324247267v.670398957l.490393723-.457094764c.707088082-.659098405,1.760902204-.652217625,3.095070461-.643428306.157906377.001004493.319378706.002059212.484291425.002059212h9.311679786v-4.04871147h-9.603259134v.001054718c-.891990221.003917525-1.73958183.03169177-2.426328918.192862751Z" style="fill:#f2af43;"/><path d="M376.783328008,161.048735169c-.708670159.659550427-1.757938948.652368299-3.086381592.643227408-.160266937-.001104943-.324175162-.002209886-.49164934-.002209886h-9.315220625v4.049715963h9.315220625c.386604433,0,.789632334-.002661908,1.178798225-.018131108-.354360192.881794612-.930587884,1.412418299-2.299260491,1.412418299h-4.142757173c-1.005447761,0-1.971268254.015117627-2.736014262.197885218-1.296298852.393158753-1.3332391,2.065740867-1.3332391,2.255188339v.002461009l.000100449.013158865-.000050225,2.007530469v.671554124l.490644846-.458501055c.705204656-.658997956,1.753393615-.651665153,3.080429968-.642323364.162326148.001155168.328394035.002310335.498128323.002310335h4.210058237c2.187008344,0,3.845778672-.848445428,4.930254959-2.521881362.138569877-.220034299.207779479-.447953873.207779479-.680594566,0-.39893459-.20521802-.664924467-.228622719-.693904104l-.006956117-.008638644-.007558814-.008035948-1.546342394-1.644908318c.812911471-.123351801,1.347553132-.361065186,1.697167092-.746238215l.075688585-.08337296v-4.202951446l-.490217937.456240944Z" style="fill:#f2af43;"/><path d="M374.026570955,172.778733842h-6.745676047v.004269097c-1.132867761.028075593-3.509800711.345344863-3.509800711,3.927820678,0,1.055521762.419275584,3.092986137,1.574317538,4.379892974l.086913799.096782948h3.481900905l-.338087397-.463372848c-.998416307-1.368572159-1.073100398-2.015717091-1.073100398-2.846784782,0-.220586771.071218589-.394665493.217723964-.532230877.311192084-.292156932.904571502-.370959447,1.274049321-.381355954.160442723.813338381.514602016,2.133845526,1.249589904,3.258828012.937569113,1.435069628,2.210413042,2.162674489,3.783148503,2.162674489,1.583609103,0,2.590664054-1.080684324,3.049993815-1.724866.151427394-.243539447.222846881-.486626872.222846881-.738352941,0-.398884366-.180030346-.685566808-.226814631-.753319895l-1.413422793-2.309682111c1.028726898-.233996759,1.522159213-.822830844,1.545287676-.851057111l.066070559-.080610603v-4.213046605l-.463272399.337509813c-.997763386.726901716-1.904645223.726901716-2.781668491.726901716ZM374.438990871,176.956120929c-.302854788.572209718-.875240292,1.401419096-1.647846462,1.401419096-.844628353,0-1.380952541-.747242709-1.564121929-1.3969491l.939929673-.001305842c.792444916-.001155168,1.750731708-.002561458,2.272038718-.003164154Z" style="fill:#f2af43;"/><path d="M373.709929494,216.425385593c-.159689353-.001054718-.323019995-.002159661-.489941701-.002159661h-4.210585596c-1.836113654,0-3.30232258.595614416-4.358020129,1.770218881-.426834397.403705935-.643202295.849952168-.643202295,1.326534106,0,.76562494.571858145,1.323420176.666431207,1.410409312l.941034616,1.002032483h-2.653746245c-.827074829,0-1.694906982.008688869-2.415806849.113005518-1.219404875.15891087-1.655355051,1.178722888-1.655355051,2.07995445,0,.063232865.002661908.099243957.002661908.099243957l-.000703145,2.05363672v.599531941l.471609695-.370155852c.697595618-.547549403,1.730214928-.539563679,3.037563208-.529418295.181938884.001456516.368649112.002862806.560030234.002862806h14.308582887v-4.048661245h-10.513958046c.355942269-.911075597.932772657-1.460483313,2.322263392-1.460483313h4.141200208c1.823607711,0,3.275753728-.063433764,3.995272416-.86200609l.074960327-.083172061v-4.197326282l-.489765914.453880384c-.710151787.658144136-1.760600856.651062457-3.090525128.64207224Z" style="fill:#f2af43;"/><path d="M373.712666739,183.657574955c-.160568285-.001104943-.324802971-.002209886-.492678946-.002209886h-4.210585596c-1.844752299,0-3.315983692.601189355-4.372811295,1.786943698-.351949407.379547866-.532356439.811279169-.532356439,1.279071788,0,.808416363.551743163,1.421207618.575223198,1.446872426l.98018475,1.043869637c-.169709176.025815483-.326284599.056653433-.47198638.092865423-1.235928793.283618738-1.298835198,1.919235491-1.298835198,2.24423936l.00032646.034203003-.000100449,1.990202956v.671704798l.490695071-.458701953c.705405555-.659399753,1.759169453-.652418523,3.093287485-.643629205.158383511.001054718.320332975.002109436.485747941.002109436h9.312734504v-4.04720473h-9.604313852v.00150674c-.287988284.001255617-.591872678.005173141-.890609043.016825266.355716258-.88134259.932898219-1.41156448,2.302198635-1.41156448h4.141200208c1.823582598,0,3.275678391-.063433764,3.995197079-.861403394l.075035664-.083222286v-4.202047401l-.490167712.455889371c-.709523978.660002449-1.758868105.652770096-3.087386085.64367943Z" style="fill:#f2af43;"/><path d="M368.784320318,202.947417569l-.51635988.763766627c-.9937203,1.472135438-1.385799222,2.052983799-1.760676193,2.327562096.058285735-.429571642.314758036-.856682275.584389201-1.305741091.356896538-.594409024.725972559-1.209108817.725972559-1.936512779l-.000150674-.025011888-.001632302-.136962688-.106451198-.086185542-2.401040795-1.94404648-.449309939-.363777318-.025438798.577533533c-.035860418.814041526-.357875919,1.548476943-.669268902,2.258754291-.311945454.711532965-.60661362,1.383639561-.60661362,2.097131288-.000025112.251726069.038321427.49853012.113959787.733481148l.024584978.07639173.060194273.053087481,3.132161383,2.759644971.008261959.007232353.008764206.006629657c.275180992.207879928.818009275.444839943,1.359531717.473869805.69880101.03932592,2.245997224-.464126218,3.618486907-2.596012981l.289093227.24851169,2.873353635,2.469547251.215062057.184826803.190728202-.209838691c.77024561-.847240036,1.261694051-1.637876864,1.570877148-2.344136238l.50207096-.211646779c.286456432-.120790342.598853908-.157203232.928528672-.108284398.287209802.033098061.751788042.086285991.904897962-.274126274.025715033-.072273307.035081935-.129127638.035081935-.187790058,0-.168905581-.07789847-.316114102-.129454099-.413499746-.311568769-.589085209-.802389402-.979029582-1.500788614-1.192735573l-.278395371-.085181048c-.020391218-.232037997-.056527871-.418672888-.089575707-.545188843l-.02202352-.084277004-.064614044-.058361072-3.932592022-3.553596628-.098113902-.088696775-.131362636.015418975c-1.027973528.120740118-2.9616235.631776182-4.362138552,2.698220194ZM374.776249561,203.99379844c-.337986948,1.047435589-1.70638332,2.114458801-2.524693943,2.452320187l-.288540756.119132928c1.199038769-1.840332527,2.122067839-2.339716467,2.795178929-2.568138287.00622786-.002059212.012380382-.00301348.018055771-.003314829Z" style="fill:#f2af43;"/><path d="M363.04429293,177.576847682l.04856726-.07252443c.093945254-.138871225.200446676-.296275356.200446676-.516912351,0-.190200843-.080535266-.384871682-.253433708-.612791255-.36046249-.479494969-2.214631915-2.915341463-2.214631915-2.915341463l-.523592233-.687826919v2.068503224c0,1.033925152.538684748,1.87001531.561612312,1.905122357l.005675388.008688869.006303197.008287071.164837382.216769696-.16481227.216619022-.006303197.008287071-.005700501.008739093c-.022927564.035107048-.561612312.871197206-.561612312,1.905122357v2.064635924l.523089986-.683206249c.082268017-.107430579,2.017349393-2.635087778,2.219553933-2.922172018Z" style="fill:#f2af43;"/><path d="M373.161008466,233.216067867c-.436886311.526808124-.982455101.817059345-1.535355645.817059345h-9.995337759c-.015957348-.479582999.307933688-1.060732362.643037996-1.664739547.454568778-.819000104.96951671-1.746035766.873341343-2.778303669l-.006469195-.06641707-3.018095169-3.717199523-.070298587.502225182c-.158279641,1.127796351-.649938471,2.226050045-1.125639953,3.288076246-.640019038,1.429476484-1.244673143,2.779813148-1.052753688,4.142872563l.009488153.067495269,4.383957901,4.81070914h8.921020087c2.374625893,0,4.150635597-.941699171,5.278431948-2.799005094,1.096312935-1.806199281,1.214914846-3.940818035,1.214914846-4.774697287v-.077414702l-3.865559731-4.827744687.163454997.869244186c.508910017,2.704986125.210895761,4.967479302-.818137544,6.207839649Z" style="fill:#f2af43;"/><path d="M361.034367851,211.688819492h1.160538903c.405671916,0,.735026043.329354126.735026043.735026043v1.160330651c0,.406559543-.330074767.73663431-.73663431.73663431h-1.158107422c-.406899105,0-.737249553-.330350448-.737249553-.737249553v-1.158315112c0-.406444761.329981578-.736426339.736426339-.736426339Z" transform="translate(-44.616776265 318.419701182) rotate(-45.046873054)" style="fill:#fff;"/><path d="M361.034367851,196.605518762h1.160538903c.405671916,0,.735026043.329354126.735026043.735026043v1.160330651c0,.406559543-.330074767.73663431-.73663431.73663431h-1.158107422c-.406899105,0-.737249553-.330350448-.737249553-.737249553v-1.158315112c0-.406444761.329981578-.736426339.736426339-.736426339Z" transform="translate(-33.942550272 313.993175782) rotate(-45.046873054)" style="fill:#fff;"/><path d="M367.959824832,210.464646573c-.977817141,0-1.917444129.013514059-2.651285057.185719815-1.179556077.264959817-1.126872406,1.663788892-1.126872406,1.663788892v2.335191435c.88150613-.821685115,2.162494952-.719588967,3.778157463-.719588967h9.020116983v-3.465628642h-9.020116983" style="fill:#fff;"/><path d="M367.959824832,195.294013496c-.977817141,0-1.917444129.013514059-2.651285057.185719815-1.179556077.264959817-1.126872406,1.663788892-1.126872406,1.663788892v2.335191435c.88150613-.821685115,2.162494952-.719588967,3.778157463-.719588967h9.020116983v-3.465628642h-9.020116983" style="fill:#fff;"/><path d="M376.981963856,161.262224422c-.885083587.823703234-2.165553937.719071501-3.776653894.719071501h-9.023642593v3.466611828h9.023642593c.554402132,0,1.096672019-.005536892,1.597930768-.041397323-.383254518,1.240574277-1.024293324,2.018792203-2.718400653,2.018792203h-4.142746988c-.985212069,0-1.931797384.013929527-2.668233862.189877681-1.13766507.345560515-1.10940513,1.982334741-1.10940513,1.982334741v2.012487721c.882491227-.824686421,2.163013424-.718554034,3.777638991-.718554034h4.210044657c2.534530479,0,3.887879818-1.15797453,4.685562365-2.388837686.363845742-.577922522-.003112523-1.032928492-.003112523-1.032928492l-1.945280503-2.069278239c.914947575-.071720862,1.673886919-.256202682,2.092656771-.717570848v-3.420609053Z" style="fill:#fff;"/><path d="M374.026569642,173.070295581h-6.454095257v.001571797c-1.613121999,0-3.509796345.446764736-3.509796345,3.638926687,0,.958579326.375684826,2.932810467,1.499732168,4.185153219h2.778180477c-1.023308228-1.402639058-1.129128367-2.110869074-1.129128367-3.018608899,0-1.33537699,2.026292352-1.20199105,2.026292352-1.20199105.315438377,1.809621197,1.423309392,5.418363408,4.78980007,5.418363408,1.429017215,0,2.352404084-.957158794,2.812618744-1.602595801.385407232-.623032542-.010378161-1.162177178-.010378161-1.162177178l-1.644285172-2.686977564c1.22784544-.127532351,1.794431664-.818797799,1.794431664-.818797799v-3.535675888c-1.054157313.768012499-2.01670062.78280907-2.953372172.78280907M372.791154511,178.649090676c-1.135712962,0-1.828858206-1.123726403-1.916946603-1.97959693.146312804,0,3.562991575-.00525739,3.918404145-.00525739.041011137,0,.073415638-.002655795.109864221-.003739793-.260739579.616090196-.979704731,1.988594113-2.111321763,1.988594113" style="fill:#fff;"/><path d="M373.219982719,216.714758852h-4.210563129c-2.039467257,0-3.314165336.749021746-4.149176552,1.682488257-1.272043766,1.192731555.018897682,2.324960466.018897682,2.324960466l1.410322801,1.501758768h-3.32755343c-.858067026,0-1.687532943.010704616-2.37406033.110087846-1.518204791.197791744-1.403578661,1.870618231-1.403578661,1.870618231v2.073589135c.882024602-.692315117,2.163531896-.588718316,3.777638991-.588718316h14.016994779v-3.465576895h-10.631216941c.385846878-1.255787793,1.023774852-2.04357885,2.731103217-2.04357885h4.141191572c1.614677415,0,3.123482843-.038447764,3.778675935-.765591742v-3.417607747c-.886068684.821167648-2.163998521.717570848-3.778675935.717570848" style="fill:#fff;"/><path d="M373.219982719,183.946953165h-4.210563129c-2.044344545,0-3.320257722.752632987-4.155159681,1.689379517-1.05455384,1.137436236.040383045,2.335180958.040383045,2.335180958l1.376103726,1.465449008c-.366579136.02853424-.708240325.075382547-1.012784374.15096258-1.121768151.257499221-1.077331884,1.988009355-1.077331884,1.988009355v1.997707312c.880002561-.822668301,2.162494952-.720110702,3.778157463-.720110702h9.021153927v-3.464071974h-9.021153927v.000983186c-.556942645,0-1.099212531.004553706-1.60197485.040465883.384809934-1.239125371,1.025796893-2.017809016,2.72197811-2.017809016h4.141191572c1.614677415,0,3.123482843-.038447764,3.778675935-.765126022v-3.420609053c-.886068684.824220701-2.163998521.719588967-3.778675935.719588967" style="fill:#fff;"/><path d="M360.270621994,226.339236368l2.656201686,3.271794321c.173407268,1.830904702-1.757683823,3.373308117-1.493197611,4.642868048h10.192206121c1.728843021,0,3.477879781-2.460850104,2.570248845-7.286425266l3.264499264,4.076753713c0,2.623259852-1.063899414,7.352709967-6.27264159,7.352709967h-8.823433014l-4.272270437-4.688236196c-.325119211-2.307979483,1.805682789-4.715080277,2.178386736-7.369464587" style="fill:#fff;"/><path d="M360.593224094,174.839984956c0,.958990974.514106623,1.745614829.514106623,1.745614829l.299054682.393194667-.299054682.393199997s-.514106623.786623855-.514106623,1.745614829v1.204144677s2.011519667-2.627176744,2.212684632-2.912814845c.170865193-.261603237.337513938-.415426363.001682571-.858069023-.361063384-.480296091-2.214367203-2.915029809-2.214367203-2.915029809v1.204144677Z" style="fill:#fff;"/><path d="M379.005873188,205.977486385c-.32191868-.60855831-.810526406-.891236799-1.328041043-1.049608969.003627493.584893271-.114719477,1.210430356-.266224003,1.628940915.377954183-.159347481.751562851-.177407775,1.084591151-.127945907.407014881.046613657.547618832.008758747.593724007-.099760393.040420333-.116807703-.030773123-.250910289-.084050112-.351625646Z" style="fill:#fff;"/><path d="M369.025670877,203.110988782c-1.530100046,2.257346759-1.942244797,2.935037175-2.477931709,3.249863016-.239995838.138968068-.344867437.012601877-.344867437-.150590852,0-1.159751693,1.33826793-2.160827119,1.32307832-3.435322219l-2.401034309-1.94400535c-.086074457,1.953638364-1.685034068,3.404464992-1.175675813,4.987184949l3.132160869,2.759653157c.253603197.191523264.747771842.391163527,1.199409579.415356604.68410206.038468888,2.111355788-.515445197,3.370574456-2.482696115,1.303838147-2.037777212,2.305846086-2.549463954,3.013112301-2.789436541.225882159-.074821671.490624403.080822565.390879297.357242685-.37974025,1.187008384-1.863765145,2.295215558-2.69254824,2.637361257l2.873367889,2.469557315c2.26628981-2.492834467,2.041989903-4.460590723,1.876866184-5.09280068l-3.932590025-3.553539828c-1.063715729.124881759-2.847545552.643327403-4.154801362,2.5721726Z" style="fill:#fff;"/><path d="M360.862007894,171.436081752c-.044451703,0-.086994136.00092965-.128606413.005235399-.041073765.002397519-.083175598.011009017-.120430824.021528744-.035394913.010519727-.066481731.026274853-.092281343.050641476-.023449742.023877334-.04303199.05519187-.052578335.094579685-.005776763.02582992-.010525458.050690405-.014343997.077405619-.002888382.025345203-.00670692.052109345-.009595301.074567739,0,.014336186-.006217364.025785563-.016253266.030580602-.00905679.008122208-.020071804.010519727-.033926244.010519727-.012924284,0-.023449742-.002397519-.032996088-.010519727-.010035902-.004795038-.016253266-.016244416-.016253266-.030580602,0-.07358916.003818538-.140475052.00670692-.201146965.006657964-.061650493.008126633-.129519541.008126633-.207850233,0-.0339567-.000979112-.07168093-.001468669-.111362319-.000930157-.040611039-.002839426-.082641018-.006657964-.126138866-.001468669-.042029979-.001909269-.084598176-.002888382-.126628155-.001909269-.040121749-.003818538-.075497389-.003818538-.11038374,0-.086017116.007637077-.175850692.021981073-.270430376.011504571-.095068974.03632507-.18348361.074608364-.262308169.035345957-.080781717.083175598-.14668903.147699104-.199292274.06359335-.052055807.146328347-.07833066.245267654-.07833066.062173637,0,.116661241.010030437.162532657.032488831.045430815.020550164.084644266.049222536.119060067.084549247.036814626.03586493.065502619.075986679.089882517.12471532.026778724.049227142.045430815.100847197.06403395.152418324.00670692.018152645.014833553.024855913.023939298.023926263.009546346-.00190823.017183422-.010519727.021491517-.023926263.022470629-.085527827.052578335-.161954866.08415471-.229330048.030597262-.067864471.065992175-.124719926.10706594-.171055653.041612277-.045406077.094190612-.080292428.151077042-.105148341.055956273-.024366623.123368161-.03679458.202725221-.03679458.105156671,0,.191710206.020109804.26152092.061650493.065502619.040121749.121899493.094139324.158224562.163422735.04112272.069283411.068831601.145754774.08415471.233635797.016253266.086506406.023890342.175356803.023890342.269011437,0,.042568197-.000440601.089393215-.002839426.139545401-.000979112.051620056-.002888382.105588701-.003818538.161514506-.000979112.053964058-.001958225.10989445-.003377938.166749905-.001419713.055436515-.002398825.107986221-.002398825.157698047,0,.045846438,0,.087925346.000979112.126628155.000930157.035816001.002398825.071627425.003818538.104610122.000979112.03537564.003818538.071436285.006217364.106567281.003328982.03821352.006217364.079803138.011015014.125645007.001909269.015808624-.001468669.027747291-.012434727.035869499-.007686032.008611497-.021050916.015265836-.0339752.016244416-.010966059.00092965-.022470629-.002886809-.033436688-.011502874-.015812665-.00762835-.021540473-.019571586-.023449742-.036790012-.003818538-.053038996-.015274153-.098396144-.024869455-.138566822-.008567233-.03914317-.023890342-.069723772-.046850528-.095998625-.02056136-.022947683-.046360972-.039192099-.078377947-.050690405-.029177549-.010960088-.073139696-.017174066-.126697143-.017174066h-1.155548444ZM361.1809048,171.07625816c.019141647,0,.037304182-.006213978.053557448-.019571585.015763709-.011449377.023890342-.031559181.023890342-.061161203v-.062139783c0-.072121291-.00670692-.139496472-.016742822-.199238736-.00905679-.061161203-.032016975-.113710909-.060704968-.158138407-.028198437-.044916788-.071719983-.077894909-.121409936-.103685073-.052137735-.024851312-.119060067-.037768558-.200326395-.037768558-.139131871,0-.239539846.037768558-.297845989.112781259-.058795699.077894909-.086553535.186810779-.086553535.329194061v.112291969c0,.043008558.008616189.067375182.029667105.074073863.020071804.009545734.05688643.013362193.106576384.013362193h.569892367ZM361.783793255,171.07625816c.110394922,0,.195528744-.003816459.258632538-.013362193.06594322-.006698682.110443878-.023872748.14339101-.050196529.030597262-.025785563.052137735-.064977662.058844655-.114204789.006657964-.050147596.010476503-.116544199.010476503-.198744856,0-.132842134-.033926244-.227915709-.096050926-.286674792-.067901444-.059742263-.167819864-.087925346-.303622752-.087925346-.099428863,0-.176387097.014776547-.237581622.045357148-.062173637.031069891-.109464765.07358916-.141530696.124279565-.034415801.052060416-.058795699.11273233-.071230426.183923971-.012924284.071191641-.020071804.14527009-.020071804.225562518v.063069433c0,.043008558.01385444.07309987.039703007.086457477.024820499.014825476.058795699.022458394.096540482.022458394h.262500032Z" style="fill:#f2af43;"/><path d="M360.355268276,167.359760945c0-.018641935.002839426-.035326711.005727807-.052060416.005727807-.016249097.019141647-.021969104.04782964-.018152645.024379899.004746109.049689954.006213978.075538521.006213978h.084595311c.091791787,0,.175946497-.002397519.252904731-.009100787.009546346,0,.014343997.004790357.018162535.014825476.004308095.009047177.007637077.021479815.007637077.035326711.001909269.012427957,0,.025345203-.003328982.03634954-.002398825.013362286-.010035902.020995204-.022470629.022903434-.076958234.014336186-.137222602.030140241-.185003286.045406077-.04303199.016244416-.07744779.03728387-.098988263.064537302-.023400786.027693793-.037255226.066396602-.04112272.11322162-.006657964.047803596-.013364884.1089648-.014343997.186810779v.198793712c0,.055881539.000979112.101772245.001958225.135684677.003818538.034397061.012385772.061161203.023890342.082200657.012434727.019571585.033436688.031999542.060704968.039192099.026778724.006213978.067411888.010030437.119990224.010030437h.523531395c.029128594,0,.045871416-.005724689.053508492-.017222995.008126633-.010519727.010035902-.020990525.010035902-.031999542,0-.101772242-.002839426-.180596801-.011945171-.240828354-.008567233-.057834034-.022470629-.101772242-.043962146-.132842134-.020071804-.02867704-.04782964-.047759336-.081755885-.058274394-.034415801-.010524396-.078426903-.018641935-.133844664-.025345203-.010525458-.00141894-.02012076-.008611497-.025848567-.019571585-.005727807-.011009017-.008616189-.023877334-.008616189-.03630529,0-.013406536.002888382-.024855913.008616189-.03679458.005727807-.010519727.015323109-.017222995.025848567-.017222995.032016975,0,.062614237.001903557.084595311.004305749l.078426903.007632918c.025799612.000978579.049689954.003816459.075538521.005284328.029128594.002397519.059285255.004741438.094631213.004741438.062614237,0,.117150798-.004741438.164490882-.010025766.048759797-.007632918.111374034-.011938667.181184748-.011938667.008616189,0,.017183422.006703268.022470629.017222995.004308095.011938667.004748695.023388044.004748695.03679458-.000440601.012427957-.002839426.025296274-.008567233.03630529-.003867494.010960088-.012434727.018152645-.024869455.019571585-.059285255.006703268-.106625339.014820807-.142460853.025345203-.036814626.010515058-.06359335.029597354-.082734997.058274394-.017183422.031069891-.030597262.0750081-.037304182.132842134-.008126633.060231553-.010476503.139056112-.010476503.240828354,0,.011009017.00234987.021479815.010476503.031999542.00670692.011498306.022030029.017222995.04303199.017222995h.393015714c.067852489,0,.119500667-.005724689.165861639-.014336186.045920371-.010519727.083224553-.024855913.11142299-.044427498.032016975-.021039454.050669066-.044921447.068831601-.074078449.017672979-.027693793.02726828-.062580143.040143608-.101282953.004797651-.031559181.008616189-.064977662.011015014-.105148341.002398825-.03821352.003328982-.078824559.003328982-.120854538,0-.053038996-.000930157-.102261532-.003818538-.148646188-.003818538-.047265378-.009546346-.080732788-.02056136-.105588701-.011455615-.043013234-.027708881-.081711368-.042052877-.113710909-.016253266-.032488831-.038234339-.059252974-.064082906-.081711368-.026778724-.021969104-.058306143-.040121749-.098449751-.054457935-.038723895-.013406536-.088462805-.024855913-.148727172-.034397061-.013364884-.001912912-.021981073-.010030437-.026289168-.023930945-.00234987-.012863635-.004308095-.027199821-.004308095-.043003876,0-.014776547.002888382-.028623443.007686032-.03963246.006657964-.012917246.014784597-.01815733.024869455-.015755126.085084867.011449377.16395237.020550164.240470003.028672372.069761758.009536464.143880566.012868317.221328356.010960088.006217364,0,.01385444.003376098.025799612.012427957.012434727.008611497.017232378.029650951.017232378.063558722v1.200765672c0,.083130308.000979112.165330965.004797651.245134103.004748695.082151728.007637077.153343369.012434727.217880671,0,.017663356-.004797651.031069891-.01341384.03963246-.007637077.009100787-.020071804.013891187-.033436688.015314765-.01341384.00283788-.023939298,0-.034464756-.008611497-.014343997-.008611497-.020071804-.022947683-.021981073-.043497848-.003818538-.052065058-.015274153-.097955783-.025799611-.134701434-.011945171-.037773159-.024869455-.067864471-.047340084-.092720384-.021050916-.024855913-.047780685-.043008558-.079357059-.055436515-.032016975-.011449377-.073629252-.017663356-.124298318-.017663356h-1.15838787c-.044011102,0-.086553535.00048929-.128116856.005235399-.042101833.002397519-.083665154.010030437-.120039179.019615867-.03632507.011454024-.066432776.029606669-.092232387.053043643-.023939298.023388044-.04303199.053968646-.053557448.093160745-.005727807.024366623-.011015014.050152187-.01341384.077400978-.004748695.026279494-.008567233.050156828-.010476503.075502031,0,.013357607-.006217364.023877334-.015323109.028672372-.010525458.007632918-.022960186.010030437-.035394913.010030437-.012385772,0-.021981073-.002397519-.031037863-.010030437-.011015014-.004795038-.017232378-.015314765-.017232378-.028672372,0-.075012741.001419713-.141893992.007637077-.201146965.004308095-.060231553.005287207-.130004254.005287207-.210247752v-1.185499836Z" style="fill:#f2af43;"/><path d="M360.861567294,165.902901083c-.044011102,0-.086553535.000924934-.128165812.003327169-.041073765.002886809-.082196485.009590077-.120430824.022458394-.035394913.009590077-.066481731.026764143-.092281343.049222536-.023449742.023436973-.04303199.055436515-.052578335.095558264-.005287207.023877334-.010525458.049711826-.013903396.076916329-.003328982.025834492-.00714752.050690405-.010035902.07358916,0,.014825476-.006217364.023926263-.016253266.030140241-.00905679.007632918-.021001961.010960088-.033926244.010960088s-.023449742-.003327169-.032996088-.010960088c-.010035902-.006213978-.016253266-.015314765-.016253266-.030140241,0-.07358916.003818538-.140964341.00670692-.201146965.005727807-.059742263.008126633-.129025674.008126633-.207360944-.002398825-.132352844-.005287207-.243225873-.008616189-.32924299-.002398825-.086946767-.006217364-.171544943-.006217364-.249880212,0-.088903925.012434727-.175361402.030597262-.260889229.018652091-.086017116.050669066-.162933446.092770899-.230797917.042052877-.067375182.096050926-.120903467.164931482-.161025216.068831601-.042029979.150587486-.061161203.247127967-.061161203.076028077,0,.142509808.011938667.196507857.038702809.056445829.023877334.105646227.058758935.145349234.103680472.040143608.043008558.071719983.095558264.098498707.157208757.024379899.060182624.04347259.125649576.058795699.194492626.002839426.017663356.010525458.024806984.021001961.024806984.008616189,0,.016302221-.007143629.024428854-.024806984.045381859-.101772242.097519594-.18255396.151028086-.238920125.056935386-.055930551.116220641-.098445073.174037227-.128536385.061684081-.030091312.12527743-.052109345.18887078-.064977662.061635125-.012917246.123808762-.026764143.185933443-.042519269.046409927-.010519727.07744779-.029650951.09800915-.054017575.022960186-.025345203.032506531-.051624809.032506531-.077405619,0-.027693793-.008567233-.053038996-.031037863-.077894909-.018162535-.023877334-.048759797-.043448919-.087043092-.056366165-.017183422-.004305749-.027219324-.011938667-.033436688-.025345203-.003818538-.013846896-.005727807-.026274853-.003377938-.038218279.003377938-.012912487.009595301-.024361864.019631203-.033462651.009546346-.010030437.019092692-.013846896.027708881-.011938667.049738909.006703268.094190612.022018033.1271867.046379897.038723895.024811743.068831601.053973405.090372074.087440816.02291123.033903015.040143608.074024765.051599223.117038079.011504571.043497848.016253266.084598176.016253266.127606735,0,.070702351-.012434727.133771784-.04112272.192535468-.028687993.056415094-.066922332.095117903-.122389049.115668068-.030107706.012379028-.070251314.024806984-.108045052.036745651-.041563321.011987596-.080776772.024415552-.123808762.034881609-.04112272.011013758-.081755885.022463135-.118570511.033472152-.042542433.011009017-.076028077.020550164-.107555496.029156922-.1271867.04110033-.220398199.091257255-.276795073.154326688-.054047004.063069433-.08415471.150500757-.08415471.263286748,0,.03772423.007637077.068794121.02056136.094579685.014343997.028232011.041563321.040170678.084595311.040170678h.407800311c.068880557,0,.124787874-.007192558.165910595-.02246312.040143608-.016728979.07074087-.040165952.0932115-.070257264.024869455-.029112733.04112272-.069283411.049738909-.113226351.011455615-.044912057.019582248-.097951052.021981073-.156714736,0-.014336186.00670692-.024366623.017232378-.032048471.012434727-.007632918.023400786-.012427957.038234339-.012427957.011945171,0,.024869455.004795038.032506531.012427957.010525458.007681847.015323109.019620514.015323109.03488635,0,.11038374-.004797651.207850233-.012434727.290980541-.006217364.084108887-.009595301.164401314-.009595301.244204453,0,.084059958.003377938.166749905.009595301.247482693.007637077.081222078.012434727.161514506.012434727.238920125,0,.012917246-.004797651.021969104-.015323109.030091312-.007637077.006703268-.02056136.009590077-.032506531.010519727-.012434727.002397519-.022960186-.00092965-.033485644-.007632918-.014343997-.005724689-.020071804-.017663356-.021981073-.032978121-.003818538-.062090854-.015274153-.113226331-.024869455-.152413719-.008567233-.037773159-.023890342-.07168093-.048270241-.092720384-.021050916-.021969104-.049738909-.03772423-.08415471-.043938208-.037255226-.007637635-.087483692-.010030437-.144859678-.010030437h-1.130630033ZM361.218208982,165.540239612c.053998048,0,.083665154-.015804055.092721943-.047803597.009595301-.031510252.012924284-.079313848.012924284-.143361861,0-.085527827-.007637077-.158143142-.021981073-.216902091-.015763709-.057834034-.041612277-.10466379-.075048965-.139545401-.033485644-.035326711-.079406015-.059693334-.137712158-.075497389-.053557448-.014776547-.119990224-.022458394-.200326395-.022458394-.07744779,0-.14104114.008611497-.192640363.024855913-.055466717.015314765-.099477819.040170678-.131005238.07358916-.033485644.034881612-.05688643.078824559-.068391001.134261073-.016693866.055925804-.021981073.122322407-.021981073.200706605,0,.086942038.008616189.143312932.028687993.170077074.019631203.029161662.060704968.042078908.121899493.042078908h.592852553Z" style="fill:#f2af43;"/><path d="M360.355268276,161.737725281c0-.018641935.002839426-.034397061.005727807-.051620056.005727807-.016244416.019141647-.022463218.04782964-.018641935.024379899.004795038.049689954.006703268.075538521.006703268h.084595311c.091791787,0,.175946497-.003816459.252904731-.008611497.009546346,0,.014343997.004305749.018162535.013846896.004308095.010079366.007637077.022458394.007637077.03346741.001909269.015755126,0,.027693793-.003328982.039192099-.002398825.012427957-.010035902.020060875-.022470629.022458394-.076958234.013846896-.137222602.030091312-.185003286.045846438-.04303199.014825476-.07744779.03586493-.098988263.064048012-.023400786.029161662-.037255226.065462136-.04112272.11322162-.006657964.047314307-.013364884.10989445-.014343997.187348998v.199238736c0,.055431711.000979112.101282953.001958225.135675211.003818538.034401863.012385772.063074235.023890342.08171137.012434727.020060875.033436688.032004342.060704968.04061104.026778724.006218777.067411888.008616296.119990224.008616296h.523531395c.029128594,0,.045871416-.004795038.053508492-.017222995.008126633-.009541148.010035902-.020990525.010035902-.032004342,0-.100348502-.002839426-.18157058-.011945171-.239355685-.008567233-.058812613-.022470629-.102261532-.043962146-.133820713-.020071804-.027693793-.04782964-.048733247-.081755885-.058274394-.034415801-.010519727-.078426903-.018152645-.133844664-.024855913-.010525458-.002886809-.02012076-.008611497-.025848567-.020060875-.005727807-.011009017-.008616189-.023436973-.008616189-.03537564,0-.013846896.002888382-.025785563.008616189-.03679458.005727807-.011938667.015323109-.017663356.025848567-.017663356.032016975,0,.062614237.00190823.084595311.003816459.026778724.00190823.054487605.003816459.078426903.006703268.025799612.003327169.049689954.005719875.075538521.007143629.029128594.00190823.059285255.003816459.094631213.003816459.062614237,0,.117150798-.003816459.164490882-.010960088.048759797-.006703268.111374034-.010519727.181184748-.010519727.008616189,0,.017183422.005724689.022470629.017663356.004308095.011009017.004748695.022947683.004748695.03679458-.000440601.011938667-.002839426.024366623-.008567233.03537564-.003867494.011449377-.012434727.017174066-.024869455.020060875-.059285255.006703268-.106625339.014336186-.142460853.024855913-.036814626.009541148-.06359335.030580602-.082734997.058274394-.017183422.031559181-.030597262.0750081-.037304182.133820713-.008126633.057785105-.010476503.139007183-.010476503.239355685,0,.011013817.00234987.022463194.010476503.032004342.00670692.012427957.022030029.017222995.04303199.017222995h.393015714c.067852489,0,.119500667-.003816459.165861639-.015265836.045920371-.008611497.083224553-.023436973.11142299-.044476427.032016975-.019571585.050669066-.043938208.068831601-.071685732.017672979-.029107931.02726828-.062575341.040143608-.10318638.004797651-.030580602.008616189-.065466952.011015014-.103680472.002398825-.039681389.003328982-.078824559.003328982-.121392756,0-.052549706-.000930157-.101282953-.003818538-.14952691-.003818538-.046335728-.009546346-.081222078-.02056136-.106077991-.011455615-.043497848-.027708881-.081711368-.042052877-.113270549-.016253266-.033907771-.038234339-.059693334-.064082906-.081711368-.026778724-.022409465-.058306143-.040611039-.098449751-.054457935-.038723895-.014825476-.088462805-.024855913-.148727172-.035326711-.013364884-.001957159-.021981073-.009590077-.026289168-.024366623-.00234987-.011009017-.004308095-.025345203-.004308095-.041589618,0-.015314765.002888382-.029161662.007686032-.041589618.006657964-.010960088.014784597-.016244416.024869455-.014336186.085084867.011009017.16395237.022018033.240470003.030580602.069761758.007681847.143880566.011938667.221328356.010030437.006217364,0,.01385444.004795038.025799612.01291242.012434727.008616323.017232378.030096138.017232378.062139784v1.202673932c0,.082156522.000979112.165776119.004797651.244644819.004748695.08073279.007637077.153837446.012434727.217396169,0,.016244416-.004797651.030091312-.01341384.040121749-.007637077.008611497-.020071804.013895825-.033436688.015804055-.01341384.00141894-.023939298-.000978579-.034464756-.008616278-.014343997-.010514946-.020071804-.023432192-.021981073-.043493067-.003818538-.052549706-.015274153-.099868797-.025799611-.135239653-.011945171-.038702809-.024869455-.069283411-.047340084-.092671455-.021050916-.024855913-.047780685-.043008558-.079357059-.054462725-.032016975-.012423167-.073629252-.017707495-.124298318-.017707495h-1.15838787c-.044011102,0-.086553535.00048929-.128116856.004305749-.042101833.002397519-.083665154.010519727-.120039179.021528744-.03632507.010955299-.066432776.027204503-.092232387.049662897-.023939298.023921476-.04303199.055436515-.053557448.095558264-.005727807.024366623-.011015014.049217752-.01341384.076475969-.004748695.026764143-.008567233.051620056-.010476503.074514029,0,.014340968-.006217364.023931044-.015323109.030145022-.010525458.007632918-.022960186.010955307-.035394913.010955307-.012385772,0-.021981073-.003322389-.031037863-.010955307-.011015014-.006213978-.017232378-.015804055-.017232378-.030145022,0-.073095089.001419713-.141404706.007637077-.201142184.004308095-.060182624.005287207-.129466035.005287207-.208828813v-1.187359136Z" style="fill:#f2af43;"/><g style="mask:url(#uuid-8ffa85e0-09b0-47b0-bb79-8827fd12567f);"><path d="M360.527537741,149.86425065c-.078610704-.045554904-.157182103-.090952587-.235635586-.136193048-.104630847-.35736427-.208239755-.713077716-.310826724-1.067022421.208907946-.060687465.646140683-.173847577.828045853-.222428993.045367578.176834784.090913279.354023315.13674332.531604901.117444392-.030658175.266647509-.063478145.40574915-.097791719-.042685612-.180018517-.085096087-.359801202-.127310035-.539230139.209065168-.053219448.607503522-.144565089.825215867-.194089834.039157364.182573365.078571399.365382562.118161123.548466897.155797181-.036160925.323552424-.067172848.405661304-.084663731-.036907726-.185246129-.073579619-.37013851-.110085049-.554795059.118142646-.027356526.549636801-.117287174.822691083-.169327461.065089663.375955702.130926128.752697512.197509394,1.130146818-.052472645.083091516-.105063206.166104422-.157732378.248960107-.511008883.088869403-1.293067473.250925374-1.821645849.369391708.004843777.021067669.009669117.042213949.014503675.06343884.613281409-.089537594,1.224951298-.180647403,1.835127584-.272897067.089262455.48475292.179782681.970881527.271639288,1.458110684.041938811-.006367467.086078721-.014267843.133245144-.021971692-.025980838-.142481905-.051843759-.284806589-.07762807-.427052661.275019549-.047245034.529993368-.086078723.76413535-.121689373.022797104.143503844.045672819.287086299.068627145.430708059.04244978-.006328162.084270675-.011948827.126445318-.018080462-.084349286-.546383713-.167401495-1.091863404-.249078016-1.636124628-.075033917-.064460779-.149989224-.128764337-.224787309-.193028589-.058643585-.380082764-.116658285-.759536643-.174004794-1.138400942.199081608-.035846482.650621493-.105888621.82604128-.131830154.025194731.194050528.050507377.388218973.076016551.582505333.079750559-.01108411.251829391-.033606077.405002348-.053651807-.022875715-.195701353-.045633514-.391324095-.068194786-.586828922.185442651-.027710274.617133333-.078296263.823682959-.101722254.018394905.197705926.03686842.395451157.055459852.593275.150853941-.017805325.331825125-.030186511.406063593-.040445208-.016508248-.198295506-.03289858-.396630318-.049170995-.594886519.032741358-.004873864.443600204-.042646308.821796302-.070199361.023936959.392188813.048149056.784495542.072636291,1.176920188-.060412326.082659158-.120942568.165200399-.181590727.247780946-.455038061.022875716-1.63423793.151875884-1.822628482.176284509.002554848.021932387.005109696.043904079.007664544.065836466.608643377-.026413197,1.216697174-.052669173,1.824279307-.078650012.034117046.500986031.068784366,1.002129283.103962656,1.503469061.042724918-.004441505.087965378-.006878437.136389572-.009669117-.00947259-.146097997-.018866569-.29215669-.028221243-.438136771.085489141-.008293429.561162512-.034038436.764410488-.04119201.006210246.147041326.012459797.294082652.018709348.441123978.045830041-.001611519.090480921-.003930535.133677503-.006013719-.022168219-.558922121-.043982689-1.117687021-.065482717-1.67645192-.069050117-.075230446-.137961786-.150421586-.206746152-.225612727-.016429637-.393761027-.032662748-.787522055-.048699331-1.181165166.377488602-.019770593.787246897-.031247756.819752423-.03120845.004244978.202029515.008568567.404098335.012892155.606088545.075623497-.001375687.285553383-.006603299.406063593-.00668191-.001886657-.20199021-.003773314-.404019724-.005659971-.606049239.22553411-.003851925.65698896-.003694703.820970889.000039305-.002397626.20199021-.004834558.403980419-.00727149.606009934.151522132.000943328.348215557.005384833.406574562.006721215.00452956-.202029515.009000926-.404137641.01344243-.60612785.166536777.001179161.621417617.022757799.819791729.032112473-.016508248.393564501-.033213023.787168306-.050114324,1.180850723-.066897709.075741415-.133913335.151561442-.201086181.227381468-.511598463-.025312647-1.292635115-.032544832-1.822304627-.025430563-.000088024.021932387-.000166634.043786163-.000245245.06571855.604516315.041074094,1.209582906.082737768,1.815317687.124794496-.019259623.503226436-.038863536,1.006531482-.058722196,1.509915139.042331864.00110055.085253309.00330165.129589746.005149001.00617094-.147041326.012341881-.294121957.01843421-.441123978.20320867.00719288.678773604.03281997.765039373.041152705-.009983559.146058692-.019967119.292078079-.029989984.438176076.046704239.00279068.091384944.005031085.132065983.008450651.038755077-.553144234.076881269-1.106052636.114339269-1.658725206-.060530242-.084899563-.120942568-.169838431-.181197673-.254816604.02452654-.392424645.048777942-.784731375.072754207-1.176920188.378667762.027395831.78925147.065404108.822307271.070160055-.01674408.198256201-.033606076.396591013-.050625294.59496513.075977246.009944254.255720621.022679189.406653173.040366598.018512821-.197784537.036917239-.395569074.055145409-.593235694.20659845.023190158.638004475.073972675.824272539.101682948-.022591043.195504826-.045319071.391127569-.068185253.586828922.153477867.020202952.325242255.042528392.40523819.053651807.025106577-.19428636.05010478-.388454805.074906458-.582505333.175734229.025862922.627509946.096062283.826316417.131751544-.057336944.378942909-.115361208.758396788-.174044099,1.138479552-.074798085.064224947-.149753392.128607115-.224787309.193028589-.492810505-.076330996-1.324747587-.181983785-1.83017511-.229425346-.002240405.021814471-.00448081.043668247-.006760521.065482718.602393826.108915133,1.206477783.217437213,1.812291175.325094575-.07365823.490805944-.148338399.982515911-.224197728,1.475011986.0418602.006053024.083799011.013127988.127388646.019809898.023347379-.144211341.046576842-.28834407.069767-.432398189.234692257.03502107.489626771.073618926.764096045.121610762-.025784311.142246073-.051647233.284649367-.07762807.427052661.046655453.008332735.091856608.015604225.134424304.021971692.100346564-.533373642.199120914-1.065410901.29640166-1.595875946-.051647233-.090245091-.103137244-.180608097-.154548644-.27108902.066583266-.377449306.132429314-.754191115.197509394-1.130146818.273093586.052079593.703919551.14193163.822975462.169288156-.036396756.18473516-.073029344.369666846-.109809552.554834364.081431087.017608798.249304246.048502806.405660937.084624425.039501879-.183084335.078767926-.365893532.117837446-.548427592.216375963.049524745.616111394.140870386.824980035.194089834-.042331864.179428937-.084860255.359211622-.127624478.539230139.138826504.034313573.288894338.067172848.405434707.097791719.046223094-.177581585.092210356-.354730812.137922481-.531604901.181354895.04838489.618823464.161662917.827190803.222428993-.102675247.353944705-.206402072.70965815-.31111153,1.066983115-.077392238.044611576-.154823782.089380373-.232333936.134267086-.496347986-.129589749-1.400990352-.329889829-1.839372562-.418130346-.004589119.0205567-.009236758.041074094-.013874789.061630794.600192727.172943554,1.202989244.343292954,1.80836064.510065567l-2.353879621,6.860631467-.000353748.001808046c-4.55768193-.889558751-9.094698838-.844121763-13.405876442.007114269l-.000157221-.000786107-2.421995797-7.020368422Z" style="fill:#f2af43;"/></g></svg>