<?xml version="1.0" encoding="UTF-8"?><svg id="uuid-92352850-31bd-491d-9d80-965edbb9d7aa" xmlns="http://www.w3.org/2000/svg" xmlns:xlink="http://www.w3.org/1999/xlink" viewBox="0 0 358.337328741 453.543307087"><defs><filter id="uuid-10408b80-4c85-4498-a89e-8044229244e4" x="238.8210364" y="289.64745565" width="51.029556934" height="39.450834481" color-interpolation-filters="sRGB" filterUnits="userSpaceOnUse"><feColorMatrix result="cm" values="-1 0 0 0 1 0 -1 0 0 1 0 0 -1 0 1 0 0 0 1 0"/><feFlood flood-color="#fff" result="bg"/><feBlend in="cm" in2="bg"/></filter><mask id="uuid-2ab9a34a-d4b1-4a34-81e9-e29107fbbfe0" x="238.8210364" y="289.64745565" width="51.029556934" height="39.450834481" maskUnits="userSpaceOnUse"><g style="filter:url(#uuid-10408b80-4c85-4498-a89e-8044229244e4);"><path d="M252.433010654,323.177108121c-.136792615-.146199183-.27368082-.292351605-.41035742-.438370613.537634636-.45124399,1.358198377-1.113393638,1.975908145-1.603454092-.796343751-.918160805-1.591612389-1.833767482-2.385170953-2.746419862-.747791894-.861474826-1.351117819-1.243829726-2.639361321-1.113197837.24870612.025231023.668453864.078383419.956457854.151796336.475003078.123854842.9237746.473658459,1.256360637.882549524.761172016.871632834,1.523889213,1.746182164,2.287728674,2.623025628-.437811098.34175791-1.277093224,1.02206764-1.780135267,1.444069075-.732955746-.777870676-1.464459833-1.553016034-2.194371977-2.325149306-.794382717-.850647975-.794300465-1.906557135-.800079747-2.594493095.001170088-.077337015.002341981-.154556448.003536352-.231786877.000996978-.032591433.002042783-.065325215.003039761-.097916648.02632881-.006719634.052562031-.013392507.078890841-.020112141,1.920625649-.455386437,2.725286167.46960458,3.022759311.817130899.9718538,1.135215507,1.945765085,2.274636927,2.921689162,3.417930733-.703168615.548569373-1.351899319,1.048592508-2.296894052,1.834398275Z" style="fill:#fff;"/><path d="M259.388657259,318.002382197c-.120025793-.169801634-.239862475-.339458851-.359983857-.509213723.523491334-.354529594,1.461056161-.958886392,2.099839899-1.354770816-.685926674-1.058298868-1.371619543-2.116119792-2.057033912-3.173129243-.64698093-.97795946-1.206369758-1.460112544-2.514451769-1.533010937.245098773.065378006.659495079.18381568.943988356.305265391.45786909.198102536.869290412.620670855,1.15384222,1.080543354.661225735,1.014585784,1.323063496,2.029938346,1.984919862,3.045755664-.433667426.273035686-1.339688416.851062911-1.891462502,1.226180554-.655913807-.943855152-1.311432907-1.886718752-1.966531157-2.828722051-.418821908-.61157037-.499911396-1.056064346-.551510148-1.504204643-.045811246-.402164344-.015303757-.857063265.030993687-1.18475605.009451403-.077360367.019022465-.154660806.028500005-.232152423.006109218-.032012221.012052018-.064179961.018279518-.096250044.027156041-.00333346.05426532-.00676251.081395229-.009964723,1.982651379-.144434172,2.677671404.907994764,2.931132032,1.298256552.840628488,1.30140689,1.681818109,2.603960846,2.523286229,3.907326276-.750623065.467061451-1.453267707.88956582-2.455203693,1.562846863Z" style="fill:#fff;"/><path d="M273.56038118,313.124964701l-1.818152933,3.399078133c-1.808246492.888957024-5.391568029,1.834072171-6.974095904-1.385191738l-2.144179613-4.361338679,1.933585885-4.229116035c1.49210552-.983078647,3.79869357-.481845906,5.741617554-1.15095067l-1.44820522,2.750289848c-1.209335042.72758969-2.859307188.056781647-3.654005317.650481622l2.560060661,5.207366216c.525312212,1.068515976,2.752917541,1.315543365,5.803374886-.880618696Z" style="fill:#fff;"/><path d="M276.192166453,304.958206604c.421810388,1.382374736.844369398,2.766397141,1.26760622,4.151746463-.64472233.208417997-1.906995983.674985046-2.677696024.971447377-.073044084-.198233898-.146185823-.396183096-.219325495-.594370234.58841839-.224469465,1.610614481-.611264796,2.314764711-.834538583-.349070753-1.124523017-.697531545-2.248041317-1.045571488-3.370699316-.373652356-1.105271674-.792157366-1.723275654-2.060082235-2.197627684.22473805.135636379.599576775.37565954.844225718.575003364.400357323.326575587.688500672.844160033.84241004,1.359293479.341581655,1.07985332.683584633,2.160685173,1.025891321,3.242079238-.529458863.170394312-1.44277192.525011864-2.086568338.758328194-.388507824-1.074430226-.776779191-2.148502268-1.164795732-3.221869721-.249105284-.705374051-.20713023-1.143611559-.138650433-1.581428466.059224566-.388746918.215003796-.803759179.348444745-1.093526121.030679419-.069264502.061405599-.138433416.092131779-.207602329.014615815-.027999542.02923163-.055999085.043989795-.083949799.026085183.004890546.052263889.009972269.078253483.014909576,1.994115775.485990363,2.390907684,1.669619615,2.534971934,2.112804563Z" style="fill:#fff;"/><path d="M285.258526942,302.743295754c.202296985,1.327462654.406881128,2.660085045.613663039,3.997200116-.694610685.138644003-2.021085392.481903605-2.786466567.678386665-.044213659-.199898706-.088282699-.399868158-.132377288-.599706648.590271801-.150270007,1.657773604-.424534905,2.412807348-.583023148-.174364434-1.08050632-.347468386-2.158193799-.519052627-3.232833859-.203001165-1.112106162-.526263842-1.761538239-1.71600605-2.407408259.204045103.167438034.543410244.453364277.752599668.677754655.35188649.373032046.558189585.907906752.637019533,1.426242917.169943331,1.036112752.341266074,2.074986166.513851444,3.116558907-.563437866.115464251-1.563781513.380805845-2.172875244.52547534-.226390648-1.074009908-.451656963-2.14596362-.675847775-3.215718786-.143188616-.7138295-.036779914-1.129567676.097420103-1.539591433.120480666-.364693166.335802861-.739413319.511550427-1.001542902.041562603-.062031258.083076379-.123920167.124590155-.185809075.018393902-.024635327.036741042-.049366244.055086116-.073859221.025529475.008597846.05110571.017291281.076728707.026080304,1.916246442.7584048,2.129524576,1.944854411,2.207309012,2.391794429Z" style="fill:#fff;"/><path d="M288.136371671,310.348458453c-3.293708483.811376778-5.157222036,1.30741523-9.899541208,2.921496427-.186324678.063427381-.427809058.10526806-.514652573-.071288857-.110857644-.225463003.098551014-.360362479.279022676-.432180702,3.271990327-1.302565667,6.722681993-2.319744063,10.154935781-3.142862213.19143157-.046023676,1.64770538-.048936036,1.693537881.142589059.040373348.168015126-1.260454106.470770895-1.713302557.582246285Z" style="fill:#fff;"/><path d="M253.819485398,327.135893497c2.66222494-2.102198908,4.19766305-3.268889406,8.382800409-6.022019599.164440912-.108163203.345673959-.273111137.259617881-.45005326-.109947592-.22590819-.34498169-.143391265-.512572093-.044941439-3.036666147,1.783558171-5.957669343,3.883341284-8.714203653,6.08770871-.153858173.122888185-1.050028269,1.270764942-.926959901,1.42450712.107859142.135001834,1.145328431-.706110881,1.511317358-.995201532Z" style="fill:#fff;"/></g></mask></defs><path d="M355.353648467,287.86436743l-40.816656537-59.679555842c-3.86039489-5.646737452-9.689695165-9.450514758-16.411011261-10.712278068-6.724782478-1.262918771-13.533913603.167541832-19.177184672,4.030247643l-.614705202.420298905c-1.189547004-1.981904321-2.393537269-3.963953074-3.624680865-5.944557501,2.198842106-5.31280925,2.084451476-11.017319747-.360503803-15.83674719-4.267117129-8.414066324-14.550719201-12.250196535-24.340939465-9.276040161-2.425890174-1.90448844-5.14757834-3.241067844-7.954770614-3.971896868v-8.48512717c0-3.50335747.124934211-8.054284684-.026864466-12.595968212-.290598418-8.698887438-4.487376865-15.15473639-12.010727262-19.294175089-2.22613987-1.224788561-3.132454519-2.434556131-3.101545939-5.006900975.1403885-11.65802282-.006355035-23.319512023.134033465-34.977534844.021087162-1.764822103.625537648-3.783267874,1.620533922-5.230193795,4.066355797-5.913071191,6.050282174-12.354476882,6.028472849-19.514290392-.050984713-16.677633865.059361804-33.356134326-.07958237-50.032757163-.027875494-3.344481595-.471716915-6.799454139-1.409662306-10.002680639C229.056571767,7.578004636,214.62659823-1.789172504,200.574027113.310444397c-15.730011489,2.350207485-26.518261112,14.653410789-26.688980461,30.907568232-.179674171,17.118731066-.255934591,34.245261494.103269319,51.358215256.096047688,4.576202922.738050654,9.987226349,3.256233268,13.482784458,4.691171282,6.512177671,4.437258748,13.377204217,4.380063433,20.528785068-.037696912,4.722657592-.007077198,9.445748481-.007077198,14.168694939v12.867357092c-17.740513467,0-34.847112194.041596593-51.952411027-.097347581-1.088299742-.008810389-2.291712276-1.288050046-3.225035824-2.198264375-3.424930561-3.340148617-6.832818073-6.704850778-10.085440526-10.210519169-1.133651582-1.222188774-2.501283998-2.852832979-2.557612717-4.342510953-.2674892-7.07416497-.185740341-14.165372988-.060950563-21.247481752.023975814-1.361999544.463050958-2.967223609,1.275628841-4.026781261,12.301614546-16.037219658,5.339673716-37.308966089-10.78752746-45.577155473-7.105795712-3.642879374-12.524185203-9.351578418-16.372736618-16.342550202-.724473989-1.316358838-.381013234-3.437207333-.037263614-5.083739125.947766809-4.539517038,3.19773806-9.059102375,3.048394738-13.523514455-.321795863-9.610834959-7.126594009-17.337835341-16.115357701-20.00940539-8.938790009-2.656837923-18.265959314.270088987-24.234781494,7.605099257-5.905416263,7.256727793-6.715827656,17.014739585-1.729436112,25.609202243,1.349145041,2.325365075,1.074867509,3.912679496-.195850624,5.945712962-4.481166262,7.169346062-10.493895957,12.560437789-17.818651511,16.800112721-14.271242094,8.260390024-20.037136452,25.537852532-12.092476121,39.194967154,3.775612946,6.490512779,4.505142076,12.724513237,4.317957409,19.633014-.095903255,3.539465623-.175918923,7.093374508.036252586,10.62287428.153387435,2.550968817-.796834728,3.777635003-3.05460534,5.013978173-7.512517952,4.113440829-11.989351235,10.512672196-12.034125346,19.239868426-.131866976,25.679540926-.113668467,51.36067061-.004621844,77.040644834.036397019,8.576986312,4.386129603,14.956719277,11.719262248,18.959380291,2.883452693,1.573882188,3.375245742,3.311406527,3.370768331,6.1788272-.070916413,45.015312607-.049684819,90.030625215-.049684819,135.045937822v4.650441285c-.849552632.330461819-1.234465546.565020383-1.645665197.627993003-13.846610211,2.12778126-21.172376793,10.679347432-21.200974451,24.784058723-.010976879,5.460997111.284965546,10.940481597-.066005704,16.378658356-.592895878,9.186203075,2.86944273,15.696647555,11.499724676,19.247956653h302.897143984c2.333597734-1.686972924,5.020044343-3.048683603,6.934065335-5.123024796,5.492050123-5.952356862,5.499993917-28.680272901.274710831-34.903585346-3.7714244-4.491854276-8.783813814-5.387336479-14.335803472-5.380981444-55.789407834.063261485-111.578960101.018198509-167.368367935.090703681-3.198893521.004044113-5.249692198-.493959538-6.896801721-3.792800427-3.060238212-6.129142381-8.522390784-9.927720112-15.256128085-10.879242169-3.603882569-.509269395-4.201689155-1.84036036-4.191578872-5.006900975.093447901-29.222761797.054884393-58.445812459.054884393-87.669151986-.000144433-16.234803473-.055028826-32.470473541.087092866-48.704265985.013865531-1.600168923.790624126-4.018837467,1.969194251-4.653185505,9.350278524-5.03260998,13.348462127-12.844103441,13.133979696-23.22649742-.133600167-6.458159874-.024842409-12.921230457-.024842409-19.808499625,4.928185201,0,9.331068986.048384925,13.732508446-.010832446,7.626764149-.102547155,14.961485553-2.290412383,18.750819598-8.928246428,3.471004564-6.08046859,7.860022819-6.720593932,13.650037424-6.224901203,3.223447065.276010724,6.489935049.049540386,9.736780197.049540386h11.967397478l6.454260193-.193539702c-3.431574461,3.180117281-5.837966232,7.369240799-6.744858612,11.904424859-5.252725283,1.272162459-10.035177977,4.361864924-13.310909648,8.647469427-2.852832979,3.724050503-4.326045636,8.133289324-4.225520537,12.561015519-2.766173411,1.777098875-5.194952238,4.111129907-7.082975359,6.818374812-1.985081838,2.845900214-1.277939763,6.529509585,1.644220871,8.570053547,2.894429572,2.017434743,6.567639795,1.40157408,8.550410711-1.436237907,2.465753575-3.529933071,7.021735931-5.769216308,11.057760879-5.426044419,2.208085793.182562823,4.172369335-.727940371,5.397157896-2.49695102,1.324158199-1.91113234,1.542540311-4.494742928.556932157-6.579194404-.911658656-1.929619715-2.715333131-3.141698206-4.946528143-3.324261029-.582352297-.048529358-1.17163736-.072794037-1.764388805-.073949498.243802251-.43329784.488759964-.784557956.682877396-1.038759355,1.295271677-1.69506115,3.179828416-3.037706724,5.243481596-3.777201705.406722239.745272285.846952845,1.428149681,1.329935504,2.060186797,2.105249772,2.754618802,5.825833893,3.204093095,8.652091271,1.043381199,2.442644357-1.866069365,3.645479161-5.419111653,1.217855796-8.601250991-.984452693-1.289494372-1.281406146-2.832034683-.881616672-4.581402496.61123882-2.674892,2.819324613-5.446842715,5.368271374-6.740958931,2.340963797-1.186658351,4.952305447-1.481300883,7.168479467-.883927594-.055462124.099369638-.110924247.199894737-.16523091.301575297-1.04453666,1.967749924-.984452693,4.146949195.162919988,5.979510193,1.235187709,1.972371768,3.531088532,3.217958626,5.813123823,3.105878918,2.129514451-.077415881,3.951676302-1.257141467,4.996212962-3.229513235.823843627-1.544851233,2.086762398-2.594009736,3.652411927-3.034240342.873528446-.246113173,1.818695467-.294642531,2.773106177-.146743535-.563864923.724473989-1.074578643,1.476679039-1.532141163,2.253148768-1.760922422,2.990332827-.785713417,6.609236388,2.269325221,8.416377246,3.037706724,1.795586249,6.66354305.901259507,8.436020081-2.079829632,1.829094616-3.076992395,6.100833589-5.267746275,9.964694861-5.169532098,1.879934896.062394889,4.421948891.729095832,5.850098572,3.542643141.984452693,1.943485245.915125038,3.981718285-.207982963,6.058081535-1.587603286,2.933715243-5.104826287,5.323208398-8.363226044,5.68255674-2.707244905.298108914-5.110603591,2.648316399-5.469951933,5.35093946-.181407362,1.364599331-.915125038,2.58592151-2.064808641,3.437496198-.741805902.548843931-1.603779739.894326742-2.490018254,1.012183754-.608927898-2.05094311-1.551783998-3.933188927-2.774261638-5.519636752-1.354200183-1.756300579-3.358924856-2.602097962-5.487283847-2.310921814-2.301678127.308508062-4.352621236,1.883401278-5.227305143,4.010604808-.812289018,1.973527229-.491070885,4.123839977.87930575,5.900938852,2.444955279,3.167118346.173319136,7.799361122-2.40798053,9.927720112-2.188442958,1.807140858-2.870164893,5.080561608-1.584136903,7.613331916l15.019836329,29.614463044c.852730149,1.68235108.184873745,3.741382417-1.489389109,4.590646183-.805356252.406722239-1.727414056.478360815-2.595165197.194117432-.868906602-.285398844-1.574893216-.890860359-1.98739276-1.703149377,0,0-12.989691516-25.611946463-13.08443931-25.79913113-1.473212656-2.903673259-5.456086402-4.211655006-8.356293279-2.738442349-1.265229693.641280803-2.706089444.749894129-4.06375601.305041679-1.357666566-.44600791-2.461131732-1.392330393-3.107034379-2.664492851-.525734713-1.037603894-.70020931-2.405669608-.456407058-3.572685124.705986614-3.380878614-1.398107697-6.480980227-4.895687863-7.213542442-2.996110132-.62394889-6.456715548.767226042-7.270160026,4.644952846-.370902951,1.765544266-.447163371,3.622369943-.22993672,5.538124127-2.506194707,1.451258899-5.519636752,2.056720414-8.303142077,1.629199879-3.193693947-.489915425-5.845476728-2.516593855-6.755979923-5.162599332-.719852145-2.092539702-2.346741102-3.52877761-4.465856405-3.938966232-2.28087983-.442541527-4.73970064.39516763-6.247577124,2.136447217-1.394641315,1.609557043-1.77132157,3.749470643-1.032982051,5.868585946,2.457665349,7.059866141,8.82887679,12.19242349,16.628237911,13.394102833.597373289.091281412,1.220166718.157142683,1.900733192.199894737.945167022,2.325942806,1.921531488,4.668062064,2.910606025,6.984761182,3.580773351,8.384024341,7.356819594,16.499981751,11.22414725,24.123712815,8.163331307,16.096725894,17.573404933,31.913830249,27.96562033,47.01223792,7.827092183,11.372046246,16.053973841,22.149030125,24.453019173,32.033998183,1.148528141,2.226573168,6.863437787,12.611855799,13.544312751,12.610700338.98098631,0,1.983926377-.223003955,2.994954671-.730251293l23.112684521-11.577718287c.397478552-.201050198.762604199-.436764223,1.093066018-.699053849l30.252277465-15.343365383c1.402729541-.506091877,2.479619106-1.519431093,3.12205537-2.945269852,2.305144509-5.10829267-1.712393064-15.022147251-2.766173411-17.446304234-.623226727-2.577255553-1.280683983-5.145845149-1.953595528-7.710101767l27.366802715-16.789135843.309663523-.204516581c3.75871433-2.570900518,6.292640099-6.453249165,7.133815639-10.930660179.840020079-4.477411014-.11439063-9.013750535-2.686446609-12.772464865ZM136.791574023,423.700640513h173.027237726v14.502189843h-173.027237726v-14.502189843ZM68.280252738,15.557184362c4.05162367-.00274422,7.185522515,3.151519624,7.219753044,7.266693644.035097125,4.21685458-2.903962124,7.322733498-7.018702846,7.416903562-4.122828949.094458929-7.30959013-2.89818482-7.455322637-7.000937635-.152809705-4.3064028,3.03250715-7.679770918,7.254272439-7.68265957ZM39.224743908,69.766788271c9.356344694-5.459408353,16.974154021-12.660818455,22.42951826-22.02554024,1.124263462-1.92990858,2.367250533-2.154212428,4.470478249-2.45939854,5.850676302-.849408199,8.746116902,1.966305598,11.603427293,6.572983802,4.644808413,7.488542138,11.392266812,13.016555982,19.000976884,17.480968061,7.555847736,4.433359067,10.499095531,10.471942199,8.691665807,17.487611961-1.795152952,6.968151432-8.451618804,11.557208856-16.838531797,11.577718287-6.77851141.016754183-13.557022821.003466383-20.335534231.003466383-7.073442807-.001011028-14.147174479.047807195-21.21975069-.014298829-7.564802558-.066439002-14.236433834-5.008345301-15.905641547-11.659033849-1.69722764-6.762046093,1.122096973-12.890899608,8.103391773-16.964477035ZM31.73952372,143.897115946c4.422093323-.138077578,8.855307958.065427974,13.276534686-.086081838,5.274967905-.180829632,8.298086936-3.191960755,8.159576059-7.83518041-.129411622-4.334422727-3.330760497-7.246473078-8.229048146-7.410115229-2.056431549-.068605491-4.117051644-.011410176-6.498023275-.011410176v-15.435802256h59.602717692v15.438113177c-2.128358991,0-4.419926834-.082037724-6.703695317.017187481-4.729012627.205527609-8.012688092,3.412220491-7.99824483,7.692336555.014298829,4.222343019,2.949169532,7.276515061,7.628208475,7.495619336,4.564359448.213615835,9.14720627-.004766276,13.717054157.128400593,6.285418468.182996121,8.764170979,2.768195468,8.769948284,9.072823474.021376027,24.048896721.019931701,48.097937875.001733191,72.146834595-.004910709,6.590460148-2.435133861,9.021549896-9.049858688,9.110809251-4.130483877.055606556-8.267611654-.110779814-12.391596064.06412808-5.585209159.236580621-8.822955053,3.324261029-8.674478326,7.961992244.145588074,4.550493917,3.610237604,7.39913835,9.142728859,7.49143079,1.759478096.029175388,3.519678355.004477411,5.736285672.004477411v142.901772096h-59.804778918v-142.901627663c1.967749924,0,3.965252967.03813021,5.961022819-.007366063,5.273668012-.120023502,8.59677358-2.913927975,8.787569062-7.341943035.204949878-4.756454823-2.887207941-7.849623671-8.46967288-8.098625497-4.417760345-.197006085-8.852274873.015020992-13.276101388-.090414816-5.692955888-.135766657-8.345605265-2.797370856-8.354993385-8.504336708-.039718969-24.34397255-.037119182-48.688089533-.002455354-73.03191765.008377092-5.882018179,2.682691361-8.584352375,8.669567617-8.771103744ZM120.942405628,415.408186449c.327284302,7.474098876.088103894,14.972751297.088103894,22.785111354H15.846303378c0-8.154665351-.265033846-16.083438094.111213112-23.981591123.189495589-3.982584881,3.423630667-5.868008216,8.477472241-5.871763464,26.551769478-.020798296,53.103394523-.010399148,79.655164001-.010399148,2.950180561,0,5.90194988-.05748418,8.850108384.01877624,4.771475815.123056587,7.80037215,2.452465775,8.002144511,7.059866141ZM151.341426628,181.011675737c-.147321266,5.130824157-3.006220415,7.745054459-8.110902269,7.866955585-3.968574917.094603362-7.941049515.028308792-11.911790922.01213234-.576863858-.002310922-1.153149985-.124067615-2.100050198-.233403103v-29.240093711h22.173294804c0,7.494463875.151654244,14.54956374-.050551415,21.594408889ZM256.093779258,355.565132889l-4.772053546-6.169005782c-14.778345-19.31468452-27.77381382-39.926951639-38.630524501-61.270625511l11.697886222-5.933291757,1.546006693,3.049261333c1.913443262,3.772579861,5.184553089,6.579194404,9.209023428,7.901041682,4.029092182,1.323002738,8.320473991.998318224,12.086121086-.911658656,7.78434013-3.948209919,10.899462735-13.508493463,6.942009129-21.312476428l-1.546006693-3.048105872,15.042945547-7.629508368c1.997791908-1.013339215,3.21102586-2.8285683,3.327727412-4.98119197.125945239-2.308610892-1.041070277-4.613755401-2.971845453-5.87320779-1.799052632-1.172792821-3.982873746-1.264074232-5.985287498-.247268634l-15.044101008,7.630663829-5.896317008-11.626247645c1.302204442-1.685817463,2.320165501-3.494113783,3.041173107-5.404090662h.040441132c2.773106177,0,5.453775481-.622793429,7.846735019-1.837182842,3.779512627-1.918065105,6.68896319-5.073628842,8.299675694-8.96868756,1.37615394-.403255857,2.566278674-.867751141,3.677832067-1.431616064.789179799-.399789474,1.557561303-.858507454,2.336341954-1.394641315,3.347370247,5.501149378,6.477513844,10.90524004,9.334968667,16.117524191-1.945796167,1.020271981-3.124366292,2.814702769-3.239912383,4.934973533-.125945239,2.309766353,1.039914816,4.614910862,2.970689992,5.87320779,1.797897171,1.173948281,3.979407363,1.264074232,5.985287498.247268634l.085504107-.043907514c10.809336784,21.373715856,19.763003352,44.038081545,26.612575608,67.361059952l2.150312748,7.467743841c1.027204746,3.770268939,2.004724674,7.572890784,2.90482872,11.301563131.637814421,2.644850016,1.593380591,5.212284151,2.901362337,7.792428356-7.824781262,3.969008215-34.11844966,17.306493464-34.290613335,17.393153032-.325839976.16523091-.629726194.353571038-.911658656.56039854l-12.741267421,6.378144206c-1.289494372-2.506194707-2.838967448-4.82867113-4.620688167-6.921210832-2.474997263-2.927937938-4.9684819-5.965644662-7.3891725-9.004506848ZM286.965383769,233.222621142c2.513127473-1.72048129,5.549678736-2.358295711,8.541167024-1.794430788,2.99379921.561554001,5.590119868,2.256615151,7.311756619,4.770898085l40.816656537,59.680711303c.430986918.629726194.590440523,1.38886401.450629754,2.136447217-.136344387.72678491-.539600244,1.361132948-1.135818071,1.790964406l-23.718434902,14.549852605c-6.969884623-23.138971257-15.966736542-45.639694795-26.868799064-67.131412096-2.176021753-4.29094851-4.485354808-8.622915883-6.902579025-12.973803928l1.505421129-1.029226803ZM201.145835829,259.332571256c3.772579861,3.488336478,8.87971707,5.177620324,13.983387896,4.604511714l3.628147248,7.153458475c-.887393977.447163371-1.774787953.894326742-2.66218193,1.341490113-2.901362337,1.460502586-5.881296016,2.961446304-8.834654094,4.483188319-.659768178-1.399263158-1.415439611-3.016908428-1.526363858-3.259555218-1.036448434-2.263547917-4.188545788-9.556817161-5.904405234-13.610174023.396323091-.198739276.833087314-.434453301,1.316069973-.71291938ZM198.892687061,257.803607611v.000288865l-.002022057.000866596c.00057773-.000288865.001299894-.000722163.002022057-.001155461ZM189.441016842,30.669746428c.10225829-8.659890632,6.236600245-14.96350761,14.552019094-15.177845608,8.204783467-.211449346,14.974628921,5.902094313,15.111695471,14.601270616.281210298,17.840460835.274566398,35.691176386.010543581,53.532214952-.128545026,8.687332829-6.820685734,14.865582298-14.988350019,14.769679043-8.401645119-.098647475-14.605892459-6.572261639-14.693707488-15.515817923-.085504107-8.700909494-.018487375-17.403263315-.018487375-26.10475054.003755248-8.70177609-.07626042-17.404418776.026286736-26.10475054ZM211.452113821,113.253426098v30.152185664h-14.485291227v-30.152185664h14.485291227ZM166.8742876,173.807954713v-14.385488291c1.227532781-.109768786,2.715621996-.355881959,4.20414451-.358770612,15.18954465-.028308792,30.379233732-.03870794,45.568778382-.008088226,7.996800504.01603202,10.166178357,2.251704442,10.175566477,10.294290085l.002166489,11.806499547v3.552464558c-4.591079481-1.91055461-9.926997949-2.132114239-14.975495517-.553465774-.000288865-.566753575-.003755248-1.124263462-.019642835-1.676284911-.16580864-5.763872302-2.950180561-8.605728402-8.825699272-8.646313966-11.934466842-.082615455-23.869944713-.024842409-36.129818233-.024842409Z" style="fill:#fff;"/><g style="mask:url(#uuid-2ab9a34a-d4b1-4a34-81e9-e29107fbbfe0);"><path d="M241.581458382,314.904743221c-.245373931-.017265515-.490465228-.034195435-.735082715-.050883282-.679609126-.744616819-1.354768977-1.486434688-2.025339268-2.225166843.435856193-.396124244,1.364562575-1.191494594,1.749151564-1.52605261.32070993.376081485.642273897.75281136.964996975,1.13015885.249146154-.214281356.572956318-.471603022.870423204-.720539482-.317975147-.387014887-.635000606-.773783569-.95112727-1.159925754.445123146-.378149388,1.305435617-1.07431473,1.775983869-1.453766185.312434064.397425678.625772908.795119531.939866349,1.193273492.335871959-.273291594.706951112-.548287378.885827754-.688508265-.310142791-.40660209-.619291198-.812624445-.927754207-1.218271307.254772205-.207082588,1.197158375-.93913276,1.799303153-1.390541448.60556462.836871993,1.213880651,1.674767306,1.82485457,2.513494759-.028758405.264501016-.0578971.528951138-.087414016.793112426-1.137025151.824066848-2.846162605,2.148584424-3.990704952,3.065531931.036843775.045473101.073736235.091159313.110744636.137025737,1.384952645-.947364078,2.764115702-1.896634511,4.138290309-2.846900104.793786374,1.072704159,1.59226823,2.147257577,2.395309419,3.222897611.094418115-.065379436.19236553-.137105458.297907099-.211954136-.232693055-.315600885-.464912299-.630959696-.696846842-.946220852.612629072-.442084888,1.186514644-.839865613,1.713572482-1.205024695.226166137.321873841.452616975.643845338.679305751.965818902.095707532-.06589174.19072734-.129314703.285999555-.194401171-.855159063-1.228432756-1.706088188-2.45621008-2.552222107-3.682660783-.259167396-.067499052-.51795657-.134709271-.776316627-.202010945-.594797942-.854577643-1.187318285-1.708374039-1.777512199-2.561531538.441511933-.324021771,1.45630955-1.031552064,1.852060721-1.303335277.292131758.441948803.584690566.884044089.877867601,1.326192337.180763354-.121834227.572457675-.381326512.92111966-.612304636-.288455974-.44872244-.576531659-.897393984-.863989116-1.346012568.418022105-.288008779,1.407694018-.924608221,1.882144339-1.227308482.279943647.458928234.560125233.917858535.840687108,1.376839731.345687616-.222770652.771072108-.468180099.93941227-.581449298-.276056793-.462606598-.551873581-.925449068-.82731008-1.388240643.073827221-.050804973,1.028081093-.631459069,1.915058422-1.148401617.524795305.925309034,1.050400015,1.850577507,1.576814131,2.77580542-.048581744.272895268-.097590537.545644051-.146839336.818628707-1.079418278.596985291-3.793712453,2.313586079-4.222831656,2.597072465.032305941.050299165.064658642.100693918.096964583.150993083,1.448771377-.788330428,2.896295963-1.575577084,4.34300081-2.361593486.678987394,1.177788128,1.359500078,2.355303957,2.041489223,3.532689838.098621185-.061630798.205744874-.121379266.32019042-.185775679-.196847714-.344034703-.393457489-.688067339-.589878153-1.031955559.198039374-.121874523,1.324228291-.750387351,1.810008211-1.009585861.190036097.350210004.380167782.700373247.570299467,1.05053649.109539506-.058442516.215369645-.117202802.317943559-.173659395-.718854125-1.33290159-1.436660906-2.665841674-2.153702976-3.999155845-.257427573-.100809269-.514471685-.201687658-.771206203-.302717497-.508408258-.938063949-1.016338571-1.876361704-1.523650656-2.814606497.894515414-.497174238,1.87737593-1.01257002,1.956474747-1.051145808.250675342.486276991.501588622.97255605.75240838,1.45864393.182276491-.093313848.686597822-.355777876.979580002-.499338393-.244893244-.488987065-.489833249-.978069718-.734773254-1.467152372.543906778-.277682546,1.593373658-.790596092,1.99661303-.976602188.234474049.494084018.468852509.988214796.70327773,1.482441164.369617643-.177969662.853251679-.401171574.996768172-.467350456-.229336039-.496715938-.458907125-.993553822-.688410549-1.490069414.406413186-.195258845,1.538335842-.683945993,2.031902368-.897198777.428070918.976771754.855710652,1.953872901,1.282965963,2.931399032-.072583862.263787184-.145360969.527905829-.218520431.792211518-1.274299801.547082375-3.182351733,1.458682572-4.4620217,2.106124706.02587859.053443352.051686549.106684328.07758803.160116483,1.51902324-.619294298,3.040086141-1.237809417,4.563241664-1.856163584.551842988,1.246738186,1.102942198,2.494077148,1.653515395,3.741910357.104258602-.047685146.211260346-.093395218.321282444-.141648987-.159925579-.36493973-.319897919-.72997505-.479967916-1.094725669.502752109-.224261784,1.689793987-.727710852,1.909502008-.810075195.149484426.367085827.29892209.734076066.448357688,1.101304243.116902755-.048776576.228229707-.096484026.331232474-.13656546-.56381739-1.391329622-1.128883637-2.781337534-1.69529433-4.169976974-.248210816-.134460127-.496181625-.269156126-.743816841-.404134758-.407214703-.983538926-.814958246-1.966463757-1.223230628-2.948774495.953496328-.383870334,1.997236358-.779901614,2.083284746-.807661384.195141786.502070846.390090327,1.004473154.584703274,1.507158094.196603971-.066205081.648882787-.249072484,1.036986798-.38561984-.190279151-.503028026-.380821932-1.005927086-.571653059-1.5083297.530027652-.189389857,1.639604009-.579126754,2.125566545-.733337101.177648948.502335672.355105038,1.005121079.532318665,1.508262024.397286815-.133457789.841570768-.283508999,1.049350852-.351627391-.170081685-.50236511-.340286645-1.004314523-.510829267-1.505743365.458146931-.146171069,1.640361464-.512920569,2.166309364-.662643131.31138216.989786004.621700679,1.98163236.931165624,2.975791698-.105498224.245178591-.211191759.490926582-.317029712.736863685-1.289304113.400656147-3.438233367,1.133457166-4.723852168,1.619381481.020503806.055717244.041054374.111530077.061462591.167294083,1.594570989-.451782681,3.192784692-.906531977,4.794175565-1.365441714.404771402,1.281249354.808132995,2.565913041,1.20956214,3.853891338.109003425-.035079807.219413815-.067767823.33337133-.103375692-.114786416-.378491899-.229766077-.756652338-.344747804-1.134574837.612425668-.1940404,1.278334897-.40346414,2.002927719-.613282357.10652185.376611636.213039566.753699151.319270515,1.130926948.123377416-.035240494.241955494-.071331732.353053608-.106488525-.390508713-1.416522927-.783251108-2.827925388-1.177755442-4.233727372-.232967215-.158028218-.465692358-.316530247-.698366606-.475412565-.287118578-.997153847-.575188342-1.991710033-.864185685-2.98344318.726110357-.198240331,1.880756502-.492271725,2.202841096-.567380999.131261517.492568767.262183305.985896045.393026656,1.479972478.218985884-.054053597.664000439-.178637074,1.087226652-.276806237-.121746027-.492248153-.24373826-.983546618-.365881111-1.473942155.585136043-.136977436,1.665948254-.39038847,2.237222347-.509449187.110514846.486725176.220972597.974544458.331137381,1.463217839.378442536-.081710832.782493351-.180332112,1.102341418-.244514797-.098853772-.486861838-.197766706-.972391632-.297021436-1.456924976.498610224-.098085431,1.69728048-.343048429,2.276313547-.443159676.171381315.98292979.342309487,1.97141213.512765138,2.964982642-.135140852.200565936-.270190249.401560988-.405290541.602936329-1.361268324.275341618-3.799614312.86446093-4.970719725,1.171401033.013295481.05545263.026401883.110879292.039578411.166390114,1.665391739-.29344967,3.334029557-.596305904,5.004674116-.91092403l2.437463834,19.485142006.001290707.004817941c-12.142384327,3.258842486-23.122160625,8.766969931-32.594057305,15.966088447l-.001317577-.001724735-14.242226484-14.191822175Z" style="fill:#f2af43;"/></g></svg>